<?xml version="1.0" standalone="no"?>
<!DOCTYPE svg PUBLIC "-//W3C//DTD SVG 1.1//EN" "http://www.w3.org/Graphics/SVG/1.1/DTD/svg11.dtd">
<svg xmlns="http://www.w3.org/2000/svg">
<defs >
<font id="FasterOne" horiz-adv-x="678" ><font-face
    font-family="Faster One"
    units-per-em="1000"
    panose-1="2 0 5 5 5 0 0 9 0 4"
    ascent="898"
    descent="-165"
    alphabetic="0" />
<glyph unicode=" " glyph-name="space" horiz-adv-x="200" />
<glyph unicode="!" glyph-name="exclam" horiz-adv-x="534" d="M237 196L-186 241H242L237 196ZM247 292L-169 337H252L247 292ZM258 388L-152 433H263L258 388ZM268 484L-135 529H273L268 484ZM188 44Q188 21 196 3L-220 48H188V44ZM223 145Q206 127 197 102L-203
145H223ZM352 625H500Q531 625 531 605Q531 600 530 598L425 170H264L311 598Q315 625 352 625ZM218 44Q218 101 249 125T337 149T415 137T436 96Q436 40 410 17T322 -7T239 4T218 44Z" />
<glyph unicode="&quot;" glyph-name="quotedbl" horiz-adv-x="665" d="M680 604L669 540Q668 536 574 275H479V506Q479 542 489 598Q493 625 529 625H649Q680 625 680 604ZM211 337V292L-100 337H211ZM211 433V388L-83 433H211ZM211 529V484L-66 529H211ZM442
604L431 540Q430 536 336 275H241V506Q241 542 251 598Q255 625 291 625H411Q442 625 442 604Z" />
<glyph unicode="#" glyph-name="numbersign" horiz-adv-x="746" d="M638 665H689L613 474H746L728 426Q718 402 706 398Q700 397 689 395H582L516 228H649L631 181Q623 163 615 158T592 150H485L420 -15Q415 -25 411 -29Q400 -40 377 -40H326L401 150H221L156
-15Q151 -25 147 -29Q136 -40 113 -40H62L137 150H0L19 197Q26 215 34 220T58 228H168L234 395H97L116 443Q126 467 138 470Q144 472 155 474H265L331 640Q336 650 340 654Q351 665 374 665H425L349 474H529L595 640Q600 650 604 654Q615 665 638 665ZM318 395L252
228H432L498 395H318Z" />
<glyph unicode="$" glyph-name="dollar" horiz-adv-x="770" d="M555 467Q522 467 509 456T489 414L548 407Q638 396 675 363T712 270Q712 163 655 84T487 1L466 -100H343L365 1Q277 8 216 25L272 184Q346 162 433 162Q469 162 502 166L509 208L451 215Q364 226
330 261T295 357Q295 464 346 541T501 635L519 718H639L623 638Q696 633 753 622L698 467H555ZM266 388L-159 433H272Q269 422 266 388ZM303 529L285 485L-130 529H303ZM266 337Q268 310 274 292L-149 337H266ZM396 196L-126 241H305Q340 207 396 196ZM391 625Q358
604 342 584L-44 625H391ZM-148 145H226L211 101L-148 145ZM-166 48H193L178 4L-166 48Z" />
<glyph unicode="%" glyph-name="percent" horiz-adv-x="971" d="M358 -40H307L576 640Q581 650 585 654Q596 665 619 665H670L401 -15Q396 -25 392 -29Q381 -40 358 -40ZM651 374T686 386T785 398T879 371T910 285Q910 252 900 196T878 105T844 43Q805 -9 701
-9Q625 -9 594 18T563 105Q563 137 573 193T595 283T629 346ZM704 92Q751 92 755 116L787 297H767Q722 297 718 274L686 92H704ZM149 601T184 613T283 625T377 598T408 512Q408 479 398 423T376 332T342 270Q303 218 199 218Q123 218 92 245T61 332Q61 364 71 420T93
510T127 573ZM202 319Q249 319 253 343L285 524H265Q220 524 216 501L184 319H202Z" />
<glyph unicode="&amp;" glyph-name="ampersand" horiz-adv-x="832" d="M261 433L252 388L-171 433H261ZM191 241Q180 199 180 196L-241 241H191ZM173 145V100L-250 145H173ZM-136 529H295Q284 506 277 485L-136 529ZM246 337Q227 316 215 294L-186 337H246ZM183
48Q191 23 208 3L-215 48H183ZM376 625Q351 609 329 584L-54 625H376ZM341 -15Q203 -15 203 119Q203 198 235 268Q252 305 284 331T360 363V367L284 396Q308 529 361 577T504 625T684 604L630 462H546Q515 462 500 454T481 420L475 382H823L777 242H711L651 -100L531
-115V21Q410 -15 341 -15ZM461 143Q497 143 531 148V242H420Q409 202 409 180Q409 143 461 143Z" />
<glyph unicode="&apos;" glyph-name="quotesingle" horiz-adv-x="427" d="M211 337V292L-100 337H211ZM211 433V388L-83 433H211ZM211 529V484L-66 529H211ZM442 604L431 540Q430 536 336 275H241V506Q241 542 251 598Q255 625 291 625H411Q442 625 442 604Z" />
<glyph unicode="(" glyph-name="parenleft" horiz-adv-x="558" d="M230 337L222 292L-202 337H230ZM255 433L242 388L-176 433H255ZM214 196L-210 241H216Q214 211 214 196ZM216 145Q220 115 223 100L-201 145H216ZM-132 529H299Q288 510 276 485L-132 529ZM239
48Q248 24 263 3L-160 48H239ZM-56 625H375Q349 601 336 583L-56 625ZM469 471T454 425T427 309T414 195T423 127T441 96T466 81L431 -66Q244 -40 244 186Q244 242 256 312Q319 658 564 690L548 543Q530 536 518 527T487 494Z" />
<glyph unicode=")" glyph-name="parenright" horiz-adv-x="512" d="M269 292L-155 337H277L269 292ZM144 3L-280 48H149L144 3ZM258 241Q247 204 244 196L-174 241H258ZM-176 625H255L244 580L-176 625ZM284 433Q285 429 285 421T283 388L-140 433H284ZM219 145Q201
117 178 103L-212 145H219ZM269 484L-155 529H231L228 516Q251 509 269 484ZM486 429Q486 378 473 302Q413 -43 166 -76L182 71Q197 77 205 82T229 102T256 140Q283 196 299 285T315 416T306 484T288 517T263 533L299 680Q486 654 486 429Z" />
<glyph unicode="*" glyph-name="asterisk" horiz-adv-x="648" d="M129 485L-180 529H150L129 485ZM162 337L153 325Q137 302 135 294L-169 337H162ZM207 196L-114 241H157Q158 239 207 196ZM148 394L162 388L-157 433H115Q118 405 148 394ZM569 565Q587 565 592
538L602 467Q603 462 603 453Q603 427 582 422L525 406H435L499 351L523 304Q525 300 525 288T501 260L437 216Q420 204 410 204T392 215L361 263L354 345L315 262L275 216Q266 205 255 205T231 216L180 260Q165 272 165 283T174 304L215 351L294 404H208L159 422Q145
427 145 438T153 466L187 538Q201 567 217 567Q219 567 227 565L278 547L338 492L326 580L336 638Q340 665 377 665H449Q479 665 479 644Q479 640 469 580L425 491L507 548L561 564Q564 565 569 565Z" />
<glyph unicode="+" glyph-name="plus" horiz-adv-x="600" d="M71 240L96 384H244L272 539H408L380 384H529L504 240H355L327 84H191L219 240H71Z" />
<glyph unicode="," glyph-name="comma" horiz-adv-x="325" d="M105 159T130 182T210 206T284 191T304 141Q304 72 248 -15L160 -151L80 -122L136 22Q90 30 90 72Q90 84 93 99Q105 159 130 182ZM-154 48H59Q71 10 97 -1L-154 48ZM72 145Q66 125 63 100L-159 145H72Z" />
<glyph unicode="-" glyph-name="hyphen" horiz-adv-x="350" d="M324 196L0 241H332L324 196ZM341 292L17 337H349L341 292Z" />
<glyph unicode="." glyph-name="period" horiz-adv-x="325" d="M72 145Q66 125 63 100L-159 145H72ZM70 3L-154 48H59Q61 19 70 3ZM103 158T128 182T209 206T284 191T304 148T300 99Q290 40 265 17T184 -6T109 8T89 50T93 99Q103 158 128 182Z" />
<glyph unicode="/" glyph-name="slash" horiz-adv-x="651" d="M219 -40H148L537 640Q542 650 546 654Q557 665 580 665H651L262 -15Q257 -25 253 -29Q242 -40 219 -40ZM141 3L-150 48H165L141 3ZM251 196L-40 241H275L251 196ZM306 292L15 337H330L306 292ZM361
388L70 433H385L361 388ZM416 484L125 529H439L416 484ZM196 100L-95 145H220L196 100ZM470 580L179 625H493L470 580Z" />
<glyph unicode="0" glyph-name="zero" horiz-adv-x="773" d="M184 292L-240 337H192L184 292ZM174 196L-250 241H178Q176 224 174 196ZM215 433L203 388L-217 433H215ZM174 145Q176 121 180 100L-243 145H174ZM252 529Q238 501 232 485L-178 529H252ZM339 625Q310
606 291 584L-91 625H339ZM234 3L-190 48H198Q212 21 234 3ZM531 640Q647 640 695 595T743 453Q743 400 728 313T692 169T637 68Q570 -15 416 -15Q300 -15 252 30T204 171Q204 232 219 315T254 456T310 556Q377 640 531 640ZM425 146Q468 146 487 155T512 199L561
479H516Q474 479 458 470T435 426L385 146H425Z" />
<glyph unicode="1" glyph-name="one" horiz-adv-x="709" d="M504 0H304L378 425H211L236 573L463 625H613L504 0ZM273 3L-151 48H281L273 3ZM307 196L-117 241H315L307 196ZM324 292L-100 337H332L324 292ZM174 388L-250 433H182L174 388ZM190 484L-234 529H197L190
484ZM290 100L-134 145H298L290 100ZM207 589L-105 625H327L209 598L207 589Z" />
<glyph unicode="2" glyph-name="two" horiz-adv-x="808" d="M322 475V602Q448 640 568 640Q702 640 744 604Q784 569 784 499T765 379T690 292T598 240Q538 215 457 188L452 160H720L692 0H204L226 125Q236 185 254 214T285 258T319 289T356 315T402 340T452 364T509
389T570 416L579 475H322ZM174 3L-250 48H182L174 3ZM191 100L-233 145H199L191 100ZM292 529V484L-132 529H292ZM293 625V580L-130 625H293ZM235 241V240Q223 220 214 197L-197 241H235ZM333 337Q307 320 280 297L-97 337H333ZM537 433L449 396L99 433H537Z" />
<glyph unicode="3" glyph-name="three" horiz-adv-x="795" d="M344 292L-79 337H352L344 292ZM214 145L200 100L-218 145H214ZM182 48L168 3L-250 48H182ZM287 529V484L-137 529H287ZM328 196L-96 241H336L328 196ZM288 625V580L-135 625H288ZM-63 433H369L360
388L-63 433ZM318 475V602Q440 640 548 640Q646 640 702 620Q765 598 765 522Q765 392 657 337L656 332Q727 297 727 219Q727 -15 417 -15Q303 -15 202 11L258 176Q344 153 407 153T516 159L527 223L366 240L391 385L559 405L570 475H318Z" />
<glyph unicode="4" glyph-name="four" horiz-adv-x="812" d="M451 3L27 48H459L451 3ZM174 100L-250 145H182L174 100ZM-230 241H202L197 232L191 196L-230 241ZM230 293L-177 337H254L230 293ZM387 581L-20 625H410L387 581ZM282 390L-124 433H306L282 390ZM335
486L-71 529H358L335 486ZM481 0L498 100H205L227 225L444 625H781L718 272H780L750 100H688L671 0H481ZM554 475L434 272H528L564 475H554Z" />
<glyph unicode="5" glyph-name="five" horiz-adv-x="799" d="M-161 433H271L261 388L-161 433ZM291 529L282 484L-140 529H291ZM302 580L-119 625H311L302 580ZM-250 48H182L168 3L-250 48ZM199 101L-217 145H214L199 101ZM253 337V326Q253 308 256 292L-168 337H253ZM283
241Q314 212 385 198L-20 241H283ZM257 176Q343 153 411 153T524 159L532 209L463 217Q362 229 323 251T283 326Q283 345 287 365L342 625H774L729 453L507 467L496 406L551 399Q656 385 699 352T742 253T723 136T673 57T599 12T515 -10T426 -15Q302 -15 201 11L257
176Z" />
<glyph unicode="6" glyph-name="six" horiz-adv-x="769" d="M183 292L-240 337H192Q190 331 183 292ZM177 241Q177 238 176 221T174 196L-250 241H177ZM217 433Q211 417 204 388L-215 433H217ZM181 100L-243 145H175Q176 123 181 100ZM261 529Q245 501 238 486L-169
529H261ZM361 625Q330 606 307 585L-68 625H361ZM200 48Q214 21 233 5L-170 48H200ZM469 257Q437 257 423 250T404 215L390 136H429Q461 136 474 143T493 178L507 257H469ZM707 259Q707 122 632 54T412 -15Q300 -15 252 32T204 177Q204 233 218 316T255 456T317
556Q394 640 574 640Q610 640 668 632T753 614L703 475H451L438 405H486Q584 405 641 381Q707 353 707 259Z" />
<glyph unicode="7" glyph-name="seven" horiz-adv-x="702" d="M174 388L-250 433H181L174 388ZM186 484L-238 529H191L186 484ZM196 580L-226 625H201L196 580ZM185 48L161 4L-247 48H185ZM-86 337H346L322 293L-86 337ZM-193 145H239L215 101L-193 145ZM268 198L-139
241H292L268 198ZM679 500L408 0H193L442 448H213L231 625H701L679 500Z" />
<glyph unicode="8" glyph-name="eight" horiz-adv-x="781" d="M198 238Q187 217 181 197L-233 241H199L198 238ZM242 433V422Q242 399 244 388L-180 433H242ZM263 529Q253 507 248 485L-168 529H263ZM172 145Q171 140 171 128T174 100L-250 145H172ZM271 318Q254
308 241 294L-157 337H260Q263 330 271 318ZM351 625Q324 609 300 584L-79 625H351ZM190 48Q203 22 228 3L-195 48H190ZM629 640T686 607T743 498Q743 441 717 392T650 315L649 308Q678 292 694 263T711 196Q711 123 671 74Q597 -15 424 -15Q201 -15 201 131Q201
188 232 236T313 308L314 315Q272 351 272 416T295 526T360 594Q437 640 533 640ZM432 240Q421 240 418 223L402 136H441Q473 136 486 143T505 178L509 201L450 234Q439 240 432 240ZM522 385Q541 385 545 403L559 484H521Q489 484 475 477T456 442L453 423L509
389Q517 385 522 385Z" />
<glyph unicode="9" glyph-name="nine" horiz-adv-x="787" d="M219 388L-205 433H223Q221 416 219 388ZM199 101L-216 145H215L199 101ZM166 4L-250 48H181L166 4ZM253 529L235 485L-178 529H253ZM346 625V624Q316 608 294 584L-85 625H346ZM220 337Q224 311 228
298L-136 337H220ZM329 209L328 204L10 241H267Q295 217 329 209ZM490 376Q522 376 535 383T554 418L567 489H528Q496 489 482 482T464 447L452 376H490ZM473 228Q335 228 292 262T249 367Q249 503 325 571T545 640Q657 640 705 593T754 446Q754 391 740 313Q709
141 642 63T438 -15T200 11L257 176Q343 153 402 153T509 159L521 228H473Z" />
<glyph unicode=":" glyph-name="colon" horiz-adv-x="325" d="M72 145Q66 125 63 100L-159 145H72ZM70 3L-154 48H59Q61 19 70 3ZM103 158T128 182T209 206T284 191T304 148T300 99Q290 40 265 17T184 -6T109 8T89 50T93 99Q103 158 128 182ZM125 434Q119 414
116 389L-106 434H125ZM123 292L-101 337H112Q114 308 123 292ZM156 447T181 471T262 495T337 480T357 437T353 388Q343 329 318 306T237 283T162 297T142 339T146 388Q156 447 181 471Z" />
<glyph unicode=";" glyph-name="semicolon" horiz-adv-x="325" d="M105 159T130 182T210 206T284 191T304 141Q304 72 248 -15L160 -151L80 -122L136 22Q90 30 90 72Q90 84 93 99Q105 159 130 182ZM-154 48H59Q71 10 97 -1L-154 48ZM72 145Q66 125 63 100L-159
145H72ZM125 434Q119 414 116 389L-106 434H125ZM123 292L-101 337H112Q114 308 123 292ZM156 447T181 471T262 495T337 480T357 437T353 388Q343 329 318 306T237 283T162 297T142 339T146 388Q156 447 181 471Z" />
<glyph unicode="&lt;" glyph-name="less" horiz-adv-x="600" d="M497 557L537 423L250 315L249 308L488 201L400 67L96 221L128 403L497 557Z" />
<glyph unicode="=" glyph-name="equal" horiz-adv-x="600" d="M50 121L75 265H508L483 121H50ZM92 359L117 503H550L525 359H92Z" />
<glyph unicode="&gt;" glyph-name="greater" horiz-adv-x="600" d="M110 67L70 201L357 309L358 316L119 423L207 557L511 403L479 221L110 67Z" />
<glyph unicode="?" glyph-name="question" horiz-adv-x="610" d="M223 292L-151 337H228L224 296L223 292ZM213 196L-161 241H218L213 196ZM200 484L-173 529H201L200 484ZM166 44Q166 18 174 3L-200 48H166V44ZM200 145Q182 128 174 102L-181 145H200ZM292 433Q247
415 237 393L-90 433H292ZM446 487Q422 489 390 489T305 483T230 469L232 612Q341 640 435 640Q527 640 568 625T624 586T640 523Q640 438 595 387T442 302L403 175H241L261 363Q263 381 276 391T332 416L440 453L446 487ZM196 44Q196 100 226 124T314 149T393
137T414 96Q414 40 387 17T299 -7T217 4T196 44Z" />
<glyph unicode="@" glyph-name="at" horiz-adv-x="1068" d="M715 221Q747 221 763 227T786 257L797 319H767Q733 319 715 312T693 277L684 221H715ZM871 690T946 653T1022 535Q1022 523 1018 497L947 90H852L809 153Q739 81 629 81Q508 81 508 198Q508 322 580
381T780 440H818L831 513Q784 523 721 523T633 522T577 512T525 490Q477 455 464 380L429 183Q425 164 425 140T436 96T462 65T505 48Q541 40 610 40H789L772 -54Q669 -75 592 -75T465 -68T371 -43T296 4Q231 65 231 178Q231 208 240 266L254 349Q270 446 312 515T418
621Q535 690 703 690ZM213 292L-211 337H221L213 292ZM-188 433H243Q235 409 231 388L-188 433ZM205 241Q203 226 201 196L-220 241H205ZM285 529Q269 501 262 485L-138 529H285ZM202 145Q203 128 209 100L-210 145H202ZM226 48Q237 25 253 5L-158 48H226Z" />
<glyph unicode="A" glyph-name="A" horiz-adv-x="851" d="M392 0H192L455 625H749L793 0H592L588 99H431L392 0ZM573 258V433H563L493 258H573ZM160 4L-250 48H179L160 4ZM201 101L-209 145H220L201 101ZM242 197L-168 241H260L242 197ZM282 293L-127 337H301L282
293ZM323 389L-86 433H341L323 389ZM404 582L-4 625H422L404 582ZM363 486L-45 529H381L363 486ZM404 582L422 625H-4L404 582Z" />
<glyph unicode="B" glyph-name="B" horiz-adv-x="774" d="M622 625Q694 625 726 600T759 523Q759 447 726 398T644 337L643 331Q733 314 733 212Q733 122 684 61T546 0H204L314 625H622ZM512 249H437L419 147H493Q518 147 531 167T544 218T512 249ZM540 488H480L463
395H522Q568 395 568 460Q568 488 540 488ZM174 3L-250 48H182L174 3ZM208 196L-216 241H216L208 196ZM225 292L-199 337H233L225 292ZM242 388L-182 433H250L242 388ZM259 484L-165 529H266L259 484ZM191 100L-233 145H199L191 100ZM275 580L-148 625H283L275
580Z" />
<glyph unicode="C" glyph-name="C" horiz-adv-x="683" d="M192 317Q190 309 188 295L-205 337H195L192 317ZM181 241Q178 218 178 199L-216 241H181ZM219 433L207 392L-181 433H219ZM179 145Q183 117 186 103L-203 145H179ZM260 529Q246 503 240 489L-134 529H260ZM209
48Q222 25 239 11L-107 48H209ZM355 625Q326 607 310 592L4 625H355ZM443 -15Q317 -15 263 34T208 185Q208 228 222 312Q252 484 325 562T558 640Q595 640 642 633T712 614L656 461Q597 475 546 475T472 465T445 425L399 163Q435 155 473 155Q554 155 621 179L605
11Q541 -15 443 -15Z" />
<glyph unicode="D" glyph-name="D" horiz-adv-x="841" d="M580 625Q709 625 763 580T818 432Q818 380 806 312Q776 144 704 72T470 0H204L314 625H580ZM554 465H475L422 160H501Q540 160 559 169T584 213L619 412Q620 418 620 428Q620 451 604 458T554 465ZM174
3L-250 48H182L174 3ZM208 196L-216 241H216L208 196ZM225 292L-199 337H233L225 292ZM242 388L-182 433H250L242 388ZM259 484L-165 529H266L259 484ZM191 100L-233 145H199L191 100ZM275 580L-148 625H283L275 580Z" />
<glyph unicode="E" glyph-name="E" horiz-adv-x="726" d="M625 236H435L422 160H655L627 0H204L314 625H732L680 465H475L461 381H651L625 236ZM174 3L-250 48H182L174 3ZM208 196L-216 241H216L208 196ZM225 292L-199 337H233L225 292ZM242 388L-182 433H250L242
388ZM259 484L-165 529H266L259 484ZM191 100L-233 145H199L191 100ZM275 580L-148 625H283L275 580Z" />
<glyph unicode="F" glyph-name="F" horiz-adv-x="666" d="M596 232H434L394 0H204L314 625H704L651 465H475L461 381H623L596 232ZM174 3L-250 48H182L174 3ZM208 196L-216 241H216L208 196ZM225 292L-199 337H233L225 292ZM242 388L-182 433H250L242 388ZM259
484L-165 529H266L259 484ZM191 100L-233 145H199L191 100ZM275 580L-148 625H283L275 580Z" />
<glyph unicode="G" glyph-name="G" horiz-adv-x="767" d="M683 30Q561 -15 438 -15T261 34T206 185Q206 228 220 312Q250 486 326 563T578 640Q616 640 673 632T757 614L702 461Q627 475 565 475T475 465T443 425L394 142H457Q491 142 507 149T529 184L534 211H486L513
364H742L683 30ZM192 317Q190 309 188 295L-205 337H195L192 317ZM181 241Q178 218 178 199L-216 241H181ZM219 433L207 392L-181 433H219ZM179 145Q183 117 186 103L-203 145H179ZM260 529Q246 503 240 489L-134 529H260ZM209 48Q222 25 239 11L-107 48H209ZM355
625Q326 607 310 592L4 625H355Z" />
<glyph unicode="H" glyph-name="H" horiz-adv-x="846" d="M537 0L575 221H432L394 0H204L314 625H504L465 404H608L647 625H837L727 0H537ZM174 3L-250 48H182L174 3ZM208 196L-216 241H216L208 196ZM225 292L-199 337H233L225 292ZM242 388L-182 433H250L242
388ZM259 484L-165 529H266L259 484ZM191 100L-233 145H199L191 100ZM275 580L-148 625H283L275 580Z" />
<glyph unicode="I" glyph-name="I" horiz-adv-x="504" d="M204 0L314 625H504L394 0H204ZM174 3L-250 48H182L174 3ZM208 196L-216 241H216L208 196ZM225 292L-199 337H233L225 292ZM242 388L-182 433H250L242 388ZM259 484L-165 529H266L259 484ZM191 100L-233
145H199L191 100ZM275 580L-148 625H283L275 580Z" />
<glyph unicode="J" glyph-name="J" horiz-adv-x="566" d="M265 160Q294 160 303 168T315 190L363 465H285L314 625H582L501 165Q487 84 442 42T325 0H177L206 160H265ZM147 3L-277 48H155L147 3ZM285 196L-139 241H293L285 196ZM302 292L-122 337H310L302 292ZM319
388L-105 433H327L319 388ZM257 484L-167 529H264L257 484ZM164 100L-260 145H172L164 100ZM275 580L-148 625H283L275 580Z" />
<glyph unicode="K" glyph-name="K" horiz-adv-x="771" d="M448 253L449 272H441L394 0H204L314 625H504L459 370H467Q475 402 485 418L611 625H816L620 318L711 0H506L451 224Q448 234 448 253ZM174 3L-250 48H182L174 3ZM208 196L-216 241H216L208 196ZM225 292L-199
337H233L225 292ZM242 388L-182 433H250L242 388ZM259 484L-165 529H266L259 484ZM191 100L-233 145H199L191 100ZM275 580L-148 625H283L275 580Z" />
<glyph unicode="L" glyph-name="L" horiz-adv-x="622" d="M584 0H204L314 625H504L422 160H612L584 0ZM174 3L-250 48H182L174 3ZM208 196L-216 241H216L208 196ZM225 292L-199 337H233L225 292ZM242 388L-182 433H250L242 388ZM259 484L-165 529H266L259 484ZM191
100L-233 145H199L191 100ZM275 580L-148 625H283L275 580Z" />
<glyph unicode="M" glyph-name="M" horiz-adv-x="1023" d="M172 3L-250 48H182L172 3ZM194 100L-227 145H205L194 100ZM217 196L-204 241H227L217 196ZM239 292L-181 337H250L239 292ZM262 388L-158 433H272L262 388ZM284 484L-135 529H295L284 484ZM307 580L-112
625H317L307 580ZM400 0H202L348 625H596L614 307H621L751 625H999L925 0H726L768 303H761L636 0H491L470 303H465L400 0Z" />
<glyph unicode="N" glyph-name="N" horiz-adv-x="851" d="M451 222Q447 229 447 241T449 270H441L394 0H204L314 625H493L595 403Q598 396 598 384T596 355H604L652 625H842L732 0H553L451 222ZM174 3L-250 48H182L174 3ZM208 196L-216 241H216L208 196ZM225 292L-199
337H233L225 292ZM242 388L-182 433H250L242 388ZM259 484L-165 529H266L259 484ZM191 100L-233 145H199L191 100ZM275 580L-148 625H283L275 580Z" />
<glyph unicode="O" glyph-name="O" horiz-adv-x="815" d="M475 156Q514 156 533 165T558 209L604 469H524Q486 469 467 460T442 416L396 156H475ZM557 640Q684 640 738 591T792 438T760 223T657 48T451 -15T261 34T207 187Q207 236 221 316T258 455T320 557Q395
640 557 640ZM192 317Q190 309 188 295L-205 337H195L192 317ZM181 241Q178 218 178 199L-216 241H181ZM219 433L207 392L-181 433H219ZM179 145Q183 117 186 103L-203 145H179ZM260 529Q246 503 240 489L-134 529H260ZM209 48Q222 25 239 11L-107 48H209ZM355
625Q326 607 310 592L4 625H355Z" />
<glyph unicode="P" glyph-name="P" horiz-adv-x="769" d="M544 151H420L394 0H204L314 625H614Q784 625 784 467Q784 392 763 332T717 236T647 176T544 151ZM492 311Q526 311 543 318T566 353Q579 427 579 434Q579 453 564 459T519 465H475L448 311H492ZM174 3L-250
48H182L174 3ZM208 196L-216 241H216L208 196ZM241 388L-182 433H249L241 388ZM258 484L-165 529H266L258 484ZM191 100L-233 145H199L191 100ZM275 580L-148 625H283L275 580ZM224 292L-199 337H232L224 292Z" />
<glyph unicode="Q" glyph-name="Q" horiz-adv-x="815" d="M207 187Q207 236 221 316T258 455T320 557Q395 640 557 640Q683 640 737 590T792 439T763 248T693 107L755 65L685 -50L509 -15L516 23L431 0Q310 0 259 48T207 187ZM475 156Q514 156 533 165T558 209L604
469H524Q486 469 467 460T442 416L396 156H475ZM195 337L188 295L-205 337H195ZM181 241Q178 218 178 199L-216 241H181ZM219 433L207 392L-181 433H219ZM179 145Q181 128 187 103L-203 145H179ZM260 529Q246 503 240 489L-134 529H260ZM215 48Q229 33 255 11L-107
48H215ZM355 625Q326 607 310 592L4 625H355Z" />
<glyph unicode="R" glyph-name="R" horiz-adv-x="795" d="M614 625Q785 625 785 472Q785 409 766 352Q731 244 656 208L722 0H513L467 186H426L394 0H204L314 625H614ZM497 340Q531 340 548 347T572 390T579 434Q579 454 564 459T513 465H475L453 340H497ZM174
3L-250 48H182L174 3ZM208 196L-216 241H216L208 196ZM241 388L-182 433H249L241 388ZM258 484L-165 529H266L258 484ZM191 100L-233 145H199L191 100ZM275 580L-148 625H283L275 580ZM224 292L-199 337H232L224 292Z" />
<glyph unicode="S" glyph-name="S" horiz-adv-x="798" d="M258 388L-166 433H265Q260 413 258 388ZM292 529L277 485L-138 529H292ZM258 337Q260 310 266 292L-157 337H258ZM398 196L-131 241H300Q333 209 398 196ZM367 625Q344 610 323 584L-63 625H367ZM-148
145H226L211 101L-148 145ZM-165 48H194L179 4L-165 48ZM269 176Q353 153 422 153T536 159L544 209L461 217Q366 226 327 260T287 356Q287 383 293 416Q316 544 377 592T564 640T788 615L736 455Q649 470 597 470T506 465L498 416L565 409Q667 398 710 361T753
260Q753 196 726 128Q711 93 695 70T653 30T606 5T552 -8Q506 -15 438 -15Q314 -15 213 11L269 176Z" />
<glyph unicode="T" glyph-name="T" horiz-adv-x="727" d="M736 465H598L517 0H327L408 465H271L300 625H765L736 465ZM296 3L-128 48H304L296 3ZM330 196L-94 241H338L330 196ZM347 292L-77 337H355L347 292ZM364 388L-60 433H372L364 388ZM313 100L-111 145H321L313
100ZM244 484L-180 529H251L244 484ZM260 580L-163 625H268L260 580Z" />
<glyph unicode="U" glyph-name="U" horiz-adv-x="814" d="M238 388L-186 433H246L238 388ZM221 292L-202 337H229L221 292ZM272 580L-151 625H280L272 580ZM-168 529H263L255 484L-168 529ZM212 241Q208 208 207 196L-216 241H212ZM205 145Q205 121 208 100L-215
145H205ZM222 48Q235 20 254 3L-169 48H222ZM486 156Q521 156 536 165T557 209L631 625H821L759 274Q744 189 725 137T670 49T584 -1T453 -15Q332 -15 284 21T235 147Q235 196 249 274L311 625H501L418 156H486Z" />
<glyph unicode="V" glyph-name="V" horiz-adv-x="793" d="M-146 48H275L278 3L-146 48ZM-152 145H269L272 100L-152 145ZM-175 529H246L249 484L-175 529ZM-169 433H252L254 388L-169 433ZM-180 625H241L243 580L-180 625ZM-163 337H257L260 292L-163 337ZM-157
241H263L266 196L-157 241ZM482 625V228H491L642 625H843L586 0H308L271 625H482Z" />
<glyph unicode="W" glyph-name="W" horiz-adv-x="993" d="M223 625V580L-170 625H223ZM223 529V484L-170 529H223ZM223 433V388L-170 433H223ZM223 337V292L-170 337H223ZM223 241V196L-170 241H223ZM223 145V100L-170 145H223ZM223 48V3L-170 48H223ZM578 0V230H567L484
0H253V625H452L434 276H440L570 625H721V276H727L834 625H1033L830 0H578Z" />
<glyph unicode="X" glyph-name="X" horiz-adv-x="772" d="M284 293L-127 337H299L302 324L284 293ZM-289 48H143L118 5L-289 48ZM286 388L-137 433H275L286 388ZM229 198L-177 241H254L229 198ZM263 484L-160 529H252Q255 514 263 484ZM240 580L-183 625H229Q232
610 240 580ZM174 102L-232 145H199L174 102ZM476 625L511 458H521L616 625H822L636 323L712 0H501L461 180H453L351 0H150L334 317L260 625H476Z" />
<glyph unicode="Y" glyph-name="Y" horiz-adv-x="654" d="M233 3L-190 48H241L233 3ZM250 100L-173 145H257L250 100ZM257 196L-167 241H248L257 196ZM238 292L-186 337H229L238 292ZM191 529L200 484L-223 529H191ZM210 433L219 388L-204 433H210ZM182 580L-241
625H173L182 580ZM413 625L426 405H433L525 625H735L483 170L454 0H264L293 170L203 625H413Z" />
<glyph unicode="Z" glyph-name="Z" horiz-adv-x="748" d="M119 3L-563 48H127L119 3ZM136 100L-288 145H144L136 100ZM243 484L-181 529H246L243 484ZM250 580L-173 625H253L250 580ZM-109 337H323L285 295L-109 337ZM-196 241H236L198 199L-196 241ZM-23 433H409L371
391L-23 433ZM662 0H150L172 125L473 459L471 465H272L283 625H768L746 500L447 166L448 160H690L662 0Z" />
<glyph unicode="[" glyph-name="bracketleft" horiz-adv-x="557" d="M207 10Q207 15 209 29L306 575Q318 637 376 658Q434 680 562 680L545 533Q542 533 465 526L386 78L464 71L429 -76Q330 -76 285 -66T224 -38T207 10ZM177 3L-250 48H182Q177 29 177 3ZM208
196L-216 241H216L208 196ZM225 292L-199 337H233L225 292ZM242 388L-182 433H250L242 388ZM259 484L-165 529H266L259 484ZM191 100L-233 145H199L191 100ZM275 580L-148 625H295Q279 610 275 580Z" />
<glyph unicode="\" glyph-name="backslash" horiz-adv-x="503" d="M71 665Q90 665 98 660T114 640L503 -40H432Q413 -40 405 -35T389 -15L0 665H71Z" />
<glyph unicode="]" glyph-name="bracketright" horiz-adv-x="532" d="M515 594Q515 589 513 575L416 29Q408 -21 368 -43Q328 -66 287 -70Q225 -76 160 -76L177 71L257 78L336 526Q261 533 258 533L293 680Q392 680 437 670T498 642T515 594ZM139 3L-210 48H144L139
3ZM247 196L-176 241H255L247 196ZM264 292L-159 337H272L264 292ZM280 388L-142 433H288L280 388ZM217 484L-125 529H227L217 484ZM230 100L-193 145H238L230 100ZM239 580L-108 625H249L239 580Z" />
<glyph unicode="^" glyph-name="asciicircum" horiz-adv-x="600" d="M528 262L392 218L329 442H323L181 218L62 262L265 587H438L528 262Z" />
<glyph unicode="_" glyph-name="underscore" horiz-adv-x="406" d="M-103 -135L-410 -81H-94L-103 -135ZM21 15H373L354 -93Q349 -120 333 -127T282 -135H-70L-51 -27Q-46 0 -30 7T21 15Z" />
<glyph unicode="`" glyph-name="grave" horiz-adv-x="279" d="M-7 655Q-11 659 -11 666T-2 684L61 758Q70 769 77 769T90 765L279 626L238 569L64 604Q48 607 38 616L-7 655ZM-37 684L-432 723H-8Q-11 719 -18 712Q-31 697 -37 684ZM6 603L-402 642H-35Q-29 633 6 603Z" />
<glyph unicode="a" glyph-name="a" horiz-adv-x="758" d="M526 0L522 81H396L365 0H192L414 529H662L701 0H526ZM522 224V376H508L449 224H522ZM160 4L-250 48H179L160 4ZM201 101L-209 145H220L201 101ZM242 197L-168 241H260L242 197ZM282 293L-127 337H301L282
293ZM323 389L-86 433H341L323 389ZM363 486L-45 529H381L363 486Z" />
<glyph unicode="b" glyph-name="b" horiz-adv-x="714" d="M566 529Q680 529 680 435Q680 383 656 341T596 283L595 277Q661 256 661 186Q661 98 614 49T470 0H204L296 529H566ZM470 205H408L395 131H457Q492 131 492 182Q492 205 470 205ZM496 402H442L431 338H486Q516
338 516 382Q516 402 496 402ZM172 3L-252 48H180L172 3ZM206 196L-218 241H214L206 196ZM223 292L-201 337H231L223 292ZM240 388L-184 433H248L240 388ZM257 484L-167 529H264L257 484ZM189 100L-235 145H197L189 100Z" />
<glyph unicode="c" glyph-name="c" horiz-adv-x="620" d="M539 11Q485 -12 389 -12T248 28T202 156Q202 195 214 264Q239 409 300 474T497 539Q594 539 630 517L579 378Q529 392 488 392T431 385T410 358L371 144Q392 139 443 139T555 161L539 11ZM179 241Q175
210 174 199L-220 241H179ZM198 337L189 295L-202 337H198ZM173 145Q173 129 177 103L-216 145H173ZM233 433Q221 407 216 393L-162 433H233ZM194 48Q206 24 220 11L-129 48H194ZM320 529Q296 515 279 496L-28 529H320Z" />
<glyph unicode="d" glyph-name="d" horiz-adv-x="775" d="M521 529Q630 529 677 490T724 365Q724 324 713 264Q688 122 627 61T428 0H204L296 529H521ZM497 383H439L397 143H455Q484 143 499 150T519 181L548 346Q549 350 549 362Q549 383 497 383ZM171 3L-253
48H179L171 3ZM205 196L-219 241H213L205 196ZM222 292L-202 337H230L222 292ZM239 388L-185 433H247L239 388ZM256 484L-168 529H263L256 484ZM188 100L-236 145H196L188 100Z" />
<glyph unicode="e" glyph-name="e" horiz-adv-x="656" d="M559 215H410L398 147H583L557 0H204L296 529H648L601 379H438L426 311H576L559 215ZM171 3L-253 48H179L171 3ZM205 196L-219 241H213L205 196ZM222 292L-202 337H230L222 292ZM239 388L-185 433H247L239
388ZM256 484L-168 529H263L256 484ZM188 100L-236 145H196L188 100Z" />
<glyph unicode="f" glyph-name="f" horiz-adv-x="591" d="M538 192H406L372 0H204L296 529H629L583 379H438L426 311H558L538 192ZM172 3L-252 48H180L172 3ZM206 196L-218 241H214L206 196ZM223 292L-201 337H231L223 292ZM240 388L-184 433H248L240 388ZM257
484L-167 529H264L257 484ZM189 100L-235 145H197L189 100Z" />
<glyph unicode="g" glyph-name="g" horiz-adv-x="696" d="M605 28Q503 -12 397 -12T246 29T201 158Q201 201 215 281T258 418Q321 539 513 539Q625 539 669 517L618 378Q555 392 505 392T433 385T408 358L366 128H412Q437 128 450 133T467 158L474 197H433L453
311H655L605 28ZM177 241Q173 210 172 199L-222 241H177ZM196 337L187 295L-204 337H196ZM171 145Q171 129 175 103L-218 145H171ZM231 433Q219 407 214 393L-164 433H231ZM192 48Q204 24 218 11L-131 48H192ZM318 529Q294 515 277 496L-30 529H318Z" />
<glyph unicode="h" glyph-name="h" horiz-adv-x="772" d="M485 0L516 183H404L372 0H204L296 529H465L432 346H545L577 529H746L653 0H485ZM171 3L-253 48H179L171 3ZM205 196L-219 241H213L205 196ZM222 292L-202 337H230L222 292ZM239 388L-185 433H247L239
388ZM256 484L-168 529H263L256 484ZM188 100L-236 145H196L188 100Z" />
<glyph unicode="i" glyph-name="i" horiz-adv-x="489" d="M204 0L296 529H472L379 0H204ZM171 3L-253 48H179L171 3ZM205 196L-219 241H213L205 196ZM222 292L-202 337H230L222 292ZM239 388L-185 433H247L239 388ZM256 484L-168 529H263L256 484ZM188 100L-236
145H196L188 100Z" />
<glyph unicode="j" glyph-name="j" horiz-adv-x="534" d="M273 143Q307 143 310 163L347 379H282L309 529H542L474 141Q448 0 321 0H176L202 143H273ZM145 3L-279 48H153L145 3ZM285 196L-139 241H293L285 196ZM302 292L-122 337H310L302 292ZM252 388L-172 433H260L252
388ZM270 484L-154 529H277L270 484ZM163 100L-261 145H171L163 100Z" />
<glyph unicode="k" glyph-name="k" horiz-adv-x="697" d="M455 0L408 173H402L372 0H204L296 529H465L436 367H441L544 529H727L559 270L638 0H455ZM171 3L-253 48H179L171 3ZM205 196L-219 241H213L205 196ZM222 292L-202 337H230L222 292ZM239 388L-185 433H247L239
388ZM256 484L-168 529H263L256 484ZM188 100L-236 145H196L188 100Z" />
<glyph unicode="l" glyph-name="l" horiz-adv-x="567" d="M529 0H204L296 529H472L405 147H555L529 0ZM171 3L-253 48H179L171 3ZM205 196L-219 241H213L205 196ZM222 292L-202 337H230L222 292ZM239 388L-185 433H247L239 388ZM256 484L-168 529H263L256 484ZM188
100L-236 145H196L188 100Z" />
<glyph unicode="m" glyph-name="m" horiz-adv-x="901" d="M575 0H443L428 215H423L375 0H204L325 529H542L557 281H561L662 529H879L815 0H643L670 215H665L575 0ZM171 3L-253 48H181L171 3ZM193 100L-230 145H204L193 100ZM216 196L-207 241H226L216 196ZM236
292L-184 337H247L236 292ZM259 388L-161 433H269L259 388ZM281 484L-138 529H292L281 484Z" />
<glyph unicode="n" glyph-name="n" horiz-adv-x="769" d="M514 0L411 198H407L372 0H204L296 529H432L536 332H542L576 529H743L650 0H514ZM171 3L-253 48H179L171 3ZM205 196L-219 241H213L205 196ZM222 292L-202 337H230L222 292ZM239 388L-185 433H247L239
388ZM256 484L-168 529H263L256 484ZM188 100L-236 145H196L188 100Z" />
<glyph unicode="o" glyph-name="o" horiz-adv-x="759" d="M509 539Q617 539 663 498T709 368Q709 325 698 264Q673 120 610 54T412 -12Q306 -12 261 29T216 158Q216 203 227 264Q252 408 314 473T509 539ZM441 140Q470 140 484 147T504 178L542 387H481Q453 387
438 380T419 350L382 140H441ZM192 241Q188 210 187 199L-207 241H192ZM211 337L202 295L-189 337H211ZM186 145Q186 129 190 103L-203 145H186ZM246 433Q234 407 229 393L-149 433H246ZM207 48Q219 24 233 11L-116 48H207ZM333 529Q309 515 292 496L-15 529H333Z"
/>
<glyph unicode="p" glyph-name="p" horiz-adv-x="695" d="M491 124H394L372 0H204L296 529H550Q695 529 695 392Q695 330 677 278T638 196T579 145T491 124ZM513 356Q513 357 514 362Q514 383 471 383H439L418 259H449Q472 259 485 264T501 288L513 356ZM171 3L-253
48H179L171 3ZM205 196L-219 241H213L205 196ZM222 292L-202 337H230L222 292ZM239 388L-185 433H247L239 388ZM256 484L-168 529H263L256 484ZM188 100L-236 145H196L188 100Z" />
<glyph unicode="q" glyph-name="q" horiz-adv-x="733" d="M202 155Q202 200 213 264Q238 408 300 473T496 539Q604 539 650 498T696 368Q696 193 612 95L656 63L596 -42L440 -10L446 26L371 1Q280 1 241 37T202 155ZM428 140Q457 140 471 147T491 178L529 387H468Q440
387 425 380T406 350L369 140H428ZM178 241Q174 210 173 199L-221 241H178ZM197 337L188 295L-203 337H197ZM172 145Q172 129 176 103L-217 145H172ZM232 433Q220 407 215 393L-163 433H232ZM193 48Q205 24 219 11L-130 48H193ZM319 529Q295 515 278 496L-29 529H319Z"
/>
<glyph unicode="r" glyph-name="r" horiz-adv-x="721" d="M550 529Q696 529 696 397Q696 337 672 273T591 176L648 0H461L423 154H399L372 0H204L296 529H550ZM513 356Q513 357 514 366Q514 383 461 383H439L423 291H455Q501 291 507 321L513 356ZM171 3L-253
48H179L171 3ZM205 196L-219 241H213L205 196ZM222 292L-202 337H230L222 292ZM239 388L-185 433H247L239 388ZM256 484L-168 529H263L256 484ZM188 100L-236 145H196L188 100Z" />
<glyph unicode="s" glyph-name="s" horiz-adv-x="718" d="M-238 48H194L180 3L-238 48ZM270 433Q264 417 257 388L-161 433H270ZM245 300V292L-179 337H247Q245 313 245 300ZM212 101L-205 145H226L212 101ZM339 529Q312 509 298 487L-92 529H339ZM254 241Q263
215 283 196L-140 241H254ZM653 372Q585 388 537 388T466 385L461 356L511 350Q672 329 672 217Q672 204 666 169T646 100T611 47T569 14T516 -4Q466 -12 383 -12T214 11L263 159Q341 137 399 137T482 140L487 172L424 179Q343 188 309 217T275 300Q275 320 280
350Q300 457 352 498T510 539T701 518L653 372Z" />
<glyph unicode="t" glyph-name="t" horiz-adv-x="623" d="M627 379H519L453 0H277L343 379H232L259 529H654L627 379ZM247 3L-177 48H255L247 3ZM281 196L-143 241H289L281 196ZM298 292L-126 337H306L298 292ZM202 388L-222 433H210L202 388ZM219 484L-205 529H226L219
484ZM264 100L-160 145H272L264 100Z" />
<glyph unicode="u" glyph-name="u" horiz-adv-x="727" d="M205 196L-219 241H213L205 196ZM222 292L-202 337H230L222 292ZM239 388L-185 433H247L239 388ZM256 484L-168 529H263L256 484ZM201 145V125Q201 108 202 100L-222 145H201ZM240 3L-184 48H211Q222 20
240 3ZM445 140Q472 140 482 146T497 178L560 529H728L676 231Q652 91 599 40T416 -12Q313 -12 272 18T231 125Q231 167 242 231L295 529H463L395 140H445Z" />
<glyph unicode="v" glyph-name="v" horiz-adv-x="725" d="M459 529V227H463L579 529H760L546 0H303L274 529H459ZM-151 48H267L270 3L-151 48ZM-157 145H262L264 100L-157 145ZM-180 529H241L244 484L-180 529ZM-174 433H247L249 388L-174 433ZM-168 337H251L254
292L-168 337ZM-162 241H256L259 196L-162 241Z" />
<glyph unicode="w" glyph-name="w" horiz-adv-x="959" d="M253 0V529H435V243H440L552 529H704V243H708L800 529H991L796 0H579L564 187H557L480 0H253ZM220 529V484L-173 529H220ZM220 433V388L-173 433H220ZM220 337V292L-173 337H220ZM220 241V196L-173 241H220ZM220
145V100L-173 145H220ZM220 48V3L-173 48H220Z" />
<glyph unicode="x" glyph-name="x" horiz-adv-x="703" d="M140 48L112 5L-292 48H140ZM267 241L239 198L-165 241H267ZM-228 145H204L176 102L-228 145ZM221 484L-203 529H207L221 484ZM-143 337H266L280 292L-143 337ZM-172 433H237L251 388L-172 433ZM438 529L464
411H473L544 529H736L561 267L644 0H448L417 124H408L334 0H144L319 267L237 529H438Z" />
<glyph unicode="y" glyph-name="y" horiz-adv-x="635" d="M234 3L-190 48H242L234 3ZM251 100L-173 145H259L251 100ZM211 388L-213 433H202L211 388ZM191 484L-233 529H182L191 484ZM231 292L-193 337H222L231 292ZM251 196L-173 241H241L251 196ZM384 529L406
337H412L495 529H670L458 151L433 0H264L290 151L212 529H384Z" />
<glyph unicode="z" glyph-name="z" horiz-adv-x="666" d="M120 3L-304 48H128L120 3ZM223 388L-201 433H226L223 388ZM230 484L-194 529H233L230 484ZM159 145L141 124L137 101L-273 145H159ZM333 337L296 295L-99 337H333ZM-185 241H247L209 199L-185 241ZM586
0H151L170 111L410 377L408 383H253L263 529H675L655 418L414 149L416 143H610L586 0Z" />
<glyph unicode="{" glyph-name="braceleft" horiz-adv-x="557" d="M207 10Q207 18 260 229L200 245L220 357L285 373L306 575Q314 647 393 666Q434 675 468 677T562 680L545 533Q542 533 465 526L453 409Q448 366 432 344T387 307L385 295Q422 267 422 218Q422
201 415 175L386 78L464 71L429 -76Q330 -76 285 -66T224 -38T207 10ZM177 3L-250 48H183Q177 26 177 3ZM220 196L-216 241H169L166 223L223 208L220 196ZM178 292L-199 337H186L178 292ZM258 397L232 391L-182 433H262L258 397ZM267 484L-165 529H271L267 484ZM196
100L-233 145H207L196 100ZM276 580L-148 625H292Q280 610 276 580Z" />
<glyph unicode="|" glyph-name="bar" horiz-adv-x="522" d="M187 -79L325 704H439L301 -79H187ZM171 3L-253 48H179L171 3ZM205 196L-219 241H213L205 196ZM222 292L-202 337H230L222 292ZM239 388L-185 433H247L239 388ZM256 484L-168 529H263L256 484ZM188 100L-236
145H196L188 100ZM272 580L-151 625H280L272 580Z" />
<glyph unicode="}" glyph-name="braceright" horiz-adv-x="533" d="M515 594Q515 586 462 375L522 359L502 247L437 231L416 29Q408 -43 329 -62Q288 -71 254 -73T160 -76L177 71L257 78L269 195Q274 238 290 260T335 297L337 309Q300 337 300 386Q300 403 307
429L336 526L258 533L293 680Q392 680 437 670T498 642T515 594ZM139 3L-210 48H144L139 3ZM290 475L-125 529H226L221 506L297 499L290 475ZM239 580L-108 625H249L239 580ZM300 302L286 293L-159 337H279Q287 317 300 302ZM239 197L-176 241H248Q240 218 239
197ZM230 106L-193 145H234L230 106ZM270 388L-142 433H277Q270 407 270 388Z" />
<glyph unicode="~" glyph-name="asciitilde" horiz-adv-x="600" d="M383 203Q348 203 315 219T257 252T212 268Q174 268 108 202L23 293Q107 390 163 412Q189 423 220 423T305 389T389 354Q435 354 492 420L578 330Q488 203 383 203Z" />
<glyph unicode="&#xa0;" glyph-name="nbspace" horiz-adv-x="200" />
<glyph unicode="&#xa1;" glyph-name="exclamdown" horiz-adv-x="587" d="M294 268L-129 313H305L294 268ZM248 76L-174 121H258L248 76ZM-150 217H282L271 172L-150 217ZM-197 25H235L224 -19L-197 25ZM211 -72Q206 -92 206 -100T209 -117L-220 -72H211ZM301 409Q301
382 313 364L-112 409H301ZM324 505Q311 488 305 461L-95 505H324ZM415 -117H267Q236 -117 236 -97Q236 -92 237 -90L342 338H503L456 -90Q452 -117 415 -117ZM549 464Q549 407 518 383T430 359T352 371T331 412Q331 468 357 491T445 515T528 504T549 464Z" />
<glyph unicode="&#xa2;" glyph-name="cent" horiz-adv-x="637" d="M497 351Q479 351 467 349T442 335T425 302L400 189Q423 186 461 186T547 201L527 56Q476 36 419 35L397 -64H275L298 44Q203 67 203 172Q203 233 221 292T259 390T315 460T397 504L417 600H539L520
513Q573 508 616 496L563 351H497ZM383 580L-40 625H391L383 580ZM174 196L-250 241H179L174 196ZM204 337Q198 322 190 292L-228 337H204ZM252 433Q245 423 226 390L-180 433H252ZM175 145Q177 116 183 100L-239 145H175ZM264 23L260 3L-163 48H219Q238 31 264
23ZM372 529V525Q333 513 305 490L-58 529H372Z" />
<glyph unicode="&#xa3;" glyph-name="sterling" horiz-adv-x="794" d="M224 292L-200 337H232L224 292ZM174 3L-250 48H182L174 3ZM363 529Q349 501 344 485L-67 529H363ZM-104 433H328L319 399H243L-104 433ZM271 232L260 196L-159 241H215L214 232H271ZM445
625Q423 608 400 584L14 625H445ZM193 118L191 104L-195 145H235L193 118ZM685 160V0H204L221 100L274 135L311 262H250L269 369H341L362 443Q418 641 600 641Q696 641 774 622L720 477H627Q595 477 576 468T549 428L533 369H677L649 262H505L478 160H685Z" />
<glyph unicode="&#xa5;" glyph-name="yen" horiz-adv-x="695" d="M413 625L424 391H430L525 625H725L589 369H652L633 262H532L505 212H624L605 105H472L454 0H264L282 105H149L168 212H286L278 262H177L196 369H259L212 625H413ZM234 4L-180 48H241L234 4ZM120
101L-163 145H127L120 101ZM143 241L136 198L-146 241H143ZM161 337L154 298L-129 337H161ZM218 433L225 398L-112 433H218ZM200 529L206 498L-95 529H200ZM182 625L187 597L-78 625H182Z" />
<glyph unicode="&#xa6;" glyph-name="brokenbar" horiz-adv-x="522" d="M279 447L325 704H439L393 447H279ZM187 -79L228 156H342L301 -79H187ZM171 3L-253 48H179L171 3ZM256 484L-168 529H263L256 484ZM188 100L-236 145H196L188 100ZM272 580L-151 625H280L272 580Z" />
<glyph unicode="&#xa7;" glyph-name="section" horiz-adv-x="761" d="M182 48L167 3L-250 48H182ZM197 196L-227 241H201Q197 211 197 196ZM233 388L-191 433H235Q233 419 233 388ZM234 337Q226 322 215 293L-197 337H234ZM260 529Q247 497 244 485L-171 529H260ZM202
145Q208 119 224 100L-198 145H202ZM368 625Q331 611 303 586L-58 625H368ZM537 203Q545 253 545 264Q545 290 504 290H395Q387 240 387 228Q387 203 428 203H537ZM227 190Q227 231 241 273T273 342Q263 361 263 404T278 490T317 556T378 595Q439 618 540 618T727
593L684 466H469L463 432Q592 432 644 400T696 306Q696 264 682 223T649 155Q660 132 660 87T643 0T599 -64T532 -100Q471 -121 365 -121T165 -91L208 31H463L469 65Q336 65 282 95T227 190Z" />
<glyph unicode="&#xa8;" glyph-name="dieresis" horiz-adv-x="430" d="M262 689T282 713T345 738T402 727T417 690Q417 631 397 607T334 582T277 593T262 630Q262 689 282 713ZM54 689T74 713T137 738T194 727T209 690Q209 631 188 607T125 582T69 593T54 630Q54
689 74 713ZM41 723Q32 706 27 677L-275 723H41ZM24 630Q24 612 27 598L-275 644H24V630Z" />
<glyph unicode="&#xa9;" glyph-name="copyright" horiz-adv-x="788" d="M469 344L499 341Q537 341 573 355L564 268Q529 254 476 254T397 277T371 351Q371 376 377 411Q392 494 427 531T539 568Q589 568 615 554L587 476Q560 483 535 483T501 479T490 464L469
344ZM252 333Q252 472 318 562Q351 609 409 635T545 662Q649 662 697 620T746 500T731 365T682 260T592 186T456 159Q350 159 301 202T252 333ZM537 616Q413 616 357 546T300 336Q300 264 338 235T464 205Q588 205 643 276T699 487Q699 558 661 587T537 616ZM231
433L224 388L-200 433H231ZM222 337V333Q222 318 224 292L-200 337H222ZM261 529Q253 512 244 485L-170 529H261ZM334 625Q313 607 294 583L-96 625H334ZM236 241Q247 213 262 196L-161 241H236Z" />
<glyph unicode="&#xaa;" glyph-name="ordfeminine" horiz-adv-x="633" d="M269 300H592L579 222Q576 202 564 197T527 191H204L218 271Q221 291 232 295T269 300ZM362 344Q228 344 228 489Q228 604 289 687T460 770Q553 770 660 738L594 356H517L481 402Q429 344
362 344ZM406 461Q439 461 450 469T464 490L493 653H469Q442 653 428 647T410 619L383 461H406ZM174 196L-250 241H182L174 196ZM198 489V484L-226 529H200Q198 516 198 489ZM221 625Q216 610 208 580L-209 625H221ZM203 433Q208 409 218 388L-205 433H203ZM269
330Q236 330 220 325T194 300L-151 337H266Q271 333 279 330H269Z" />
<glyph unicode="&#xab;" glyph-name="guillemotleft" horiz-adv-x="767" d="M124 228L-200 273H132L124 228ZM155 328L-126 369H205L155 328ZM273 424L-8 465H323L273 424ZM-154 177H130L169 132L-154 177ZM-69 80H214L254 35L-69 80ZM167 300L382 475L450 424L325
250L389 76L303 25L150 200L167 300ZM404 300L620 475L687 424L562 250L626 76L541 25L382 200L404 300Z" />
<glyph unicode="&#xac;" glyph-name="logicalnot" horiz-adv-x="600" d="M72 240L97 384H530L480 100H352L377 240H72Z" />
<glyph unicode="&#xae;" glyph-name="registered" horiz-adv-x="788" d="M252 333Q252 472 318 562Q351 609 409 635T545 662Q649 662 697 620T746 500T731 365T682 260T592 186T456 159Q350 159 301 202T252 333ZM537 616Q413 616 357 546T300 336Q300 264 338
235T464 205Q588 205 643 276T699 487Q699 558 661 587T537 616ZM554 561Q638 561 638 487Q638 451 624 414T578 360L610 261H503L481 348H470L455 261H358L411 561H554ZM500 428Q516 428 522 430T531 448T534 468Q534 478 509 478H493L484 428H500ZM231 433L224
388L-200 433H231ZM222 337V333Q222 318 224 292L-200 337H222ZM261 529Q253 512 244 485L-170 529H261ZM334 625Q313 607 294 583L-96 625H334ZM236 241Q247 213 262 196L-161 241H236Z" />
<glyph unicode="&#xaf;" glyph-name="overscore" horiz-adv-x="399" d="M101 596Q76 596 67 603T57 625T61 660L72 723H307Q332 723 341 717T350 700T346 660L335 596H101ZM34 684L-326 723H41L34 684ZM28 642Q27 638 27 626T30 601L-330 642H28Z" />
<glyph unicode="&#xb0;" glyph-name="degree" horiz-adv-x="578" d="M204 477Q204 576 254 640T406 704Q478 704 511 675T544 585Q544 486 494 422T344 357Q271 357 238 386T204 477ZM362 461Q383 461 393 462T414 473T428 500L445 600H391Q367 600 356 599T334
589T320 562L302 461H362ZM174 484L-250 529H177Q174 506 174 484ZM207 625Q194 601 189 581L-224 625H207ZM178 433Q183 406 194 388L-229 433H178Z" />
<glyph unicode="&#xb1;" glyph-name="plusminus" horiz-adv-x="600" d="M91 341L116 485H264L292 640H428L400 485H549L524 341H375L347 185H211L239 341H91ZM31 0L56 144H489L464 0H31Z" />
<glyph unicode="&#xb2;" glyph-name="twosuperior" horiz-adv-x="400" d="M85 724Q153 741 218 741T310 736T355 711T375 652Q375 643 371 613Q361 554 327 530T180 468L176 448H336L318 343H12L26 425Q35 471 48 487T68 511T93 529T120 544T155 560T192 576L232
594L238 629Q217 631 184 631T84 616L85 724Z" />
<glyph unicode="&#xb3;" glyph-name="threesuperior" horiz-adv-x="400" d="M235 628Q213 631 175 631T84 616L85 724Q153 741 226 741T332 726T366 665Q366 588 308 550Q343 529 343 486Q343 478 339 452T321 402T291 365T248 345Q208 334 143 334T13 351L50
460Q112 444 149 444T203 446L211 492L115 503L127 572L227 584L235 628Z" />
<glyph unicode="&#xb4;" glyph-name="acute" horiz-adv-x="429" d="M229 765Q235 769 242 769T258 758L321 684Q330 674 330 668T328 658T281 616Q271 607 255 604L81 569L40 626L229 765ZM67 684L-293 723H120L67 684ZM-44 603L-404 642H9L-44 603Z" />
<glyph unicode="&#xb5;" glyph-name="mu" horiz-adv-x="784" d="M446 131Q480 131 497 138T519 173L583 529L775 544L679 0H584L550 43Q507 0 426 0H358L297 -165H174L298 529H488L417 131H446ZM171 3L-253 48H179L171 3ZM205 196L-219 241H213L205 196ZM222 292L-202
337H230L222 292ZM239 388L-185 433H247L239 388ZM256 484L-168 529H263L256 484ZM188 100L-236 145H196L188 100Z" />
<glyph unicode="&#xb6;" glyph-name="paragraph" horiz-adv-x="766" d="M283 100L-141 145H291L283 100ZM266 3L-158 48H274L266 3ZM187 388L-237 433H192Q188 403 187 388ZM224 529Q212 507 205 485L-207 529H224ZM186 337Q188 311 193 292L-230 337H186ZM322
625Q290 608 267 585L-106 625H322ZM218 241Q244 210 294 196L-124 241H218ZM216 359Q216 468 270 542Q298 581 347 603T464 625H767L738 465H690L608 0Q579 -165 437 -165H157L166 -114L368 -55Q415 -42 420 -12L505 465H477L396 0L293 -25L335 218Q216 236 216
359Z" />
<glyph unicode="&#xb7;" glyph-name="middot" horiz-adv-x="325" d="M72 338Q66 318 63 293L-159 338H72ZM70 196L-154 241H59Q61 212 70 196ZM103 351T128 375T209 399T284 384T304 341T300 292Q290 233 265 210T184 187T109 201T89 243T93 292Q103 351 128 375Z" />
<glyph unicode="&#xb8;" glyph-name="cedilla" horiz-adv-x="469" d="M326 -64Q326 -105 294 -135T209 -165T109 -146L135 -58H166Q186 -58 192 -53T203 -26L211 21H269Q326 -3 326 -64ZM94 -89L-88 -58H103L94 -89ZM73 -161L-101 -130H82L73 -161Z" />
<glyph unicode="&#xb9;" glyph-name="onesuperior" horiz-adv-x="400" d="M316 343H37L55 448H136L162 596L70 591L90 700L220 732H319L269 448H334L316 343Z" />
<glyph unicode="&#xba;" glyph-name="ordmasculine" horiz-adv-x="633" d="M237 490Q237 611 298 690T483 770Q572 770 613 734T655 623Q655 503 593 424T408 344Q319 344 278 380T237 490ZM415 461Q442 461 456 467T473 495L501 653H477Q450 653 436 647T419
619L391 461H415ZM269 300H592L579 222Q576 202 564 197T527 191H204L218 271Q221 291 232 295T269 300ZM174 196L-250 241H182L174 196ZM228 625Q220 598 216 580L-203 625H228ZM207 490V484L-217 529H208Q207 516 207 490ZM213 433Q220 405 230 388L-193 433H213ZM269
330Q247 330 236 329Q206 326 195 302L-129 337H286Q292 333 302 330H269Z" />
<glyph unicode="&#xbb;" glyph-name="guillemotright" horiz-adv-x="758" d="M563 475L716 300L699 200L484 25L416 76L542 250L477 424L563 475ZM326 475L479 300L462 200L247 25L179 76L305 250L240 424L326 475ZM252 228L-150 273H265L272 255L252 228ZM245
328L-76 369H229L245 328ZM208 424L42 465H249L203 438L208 424ZM-104 177H215L182 132L-104 177ZM-19 80H145L138 70L184 35L-19 80Z" />
<glyph unicode="&#xbc;" glyph-name="onequarter" horiz-adv-x="971" d="M377 -40H326L595 640Q600 650 604 654Q615 665 638 665H689L420 -15Q415 -25 411 -29Q400 -40 377 -40ZM728 0L738 60H563L578 144L710 389H923L883 160H920L902 60H865L855 0H728ZM756
160L780 295H763L696 160H756ZM342 227H63L81 332H162L188 480L96 475L116 584L246 616H345L295 332H360L342 227Z" />
<glyph unicode="&#xbd;" glyph-name="onehalf" horiz-adv-x="971" d="M347 -40H296L565 640Q570 650 574 654Q585 665 608 665H659L390 -15Q385 -25 381 -29Q370 -40 347 -40ZM642 381Q710 398 775 398T867 393T912 368T932 309Q932 300 928 270Q918 211 884 187T737
125L733 105H893L875 0H569L583 82Q592 128 605 144T625 168T650 186T677 201T712 217T749 233L789 251L795 286Q774 288 741 288T641 273L642 381ZM322 227H43L61 332H142L168 480L76 475L96 584L226 616H325L275 332H340L322 227Z" />
<glyph unicode="&#xbe;" glyph-name="threequarters" horiz-adv-x="971" d="M358 -40H307L576 640Q581 650 585 654Q596 665 619 665H670L401 -15Q396 -25 392 -29Q381 -40 358 -40ZM728 0L738 60H563L578 144L710 389H923L883 160H920L902 60H865L855 0H728ZM756
160L780 295H763L696 160H756ZM251 512Q229 515 191 515T100 500L101 608Q169 625 242 625T348 610T382 549Q382 472 324 434Q359 413 359 370Q359 362 355 336T337 286T307 249T264 229Q224 218 159 218T29 235L66 344Q128 328 165 328T219 330L227 376L131 387L143
456L243 468L251 512Z" />
<glyph unicode="&#xbf;" glyph-name="questiondown" horiz-adv-x="610" d="M112 49L106 4L-318 49H112ZM328 292L-90 337H341L328 292ZM332 433V412Q332 395 334 388L-90 433H332ZM161 145Q142 125 131 102L-271 145H161ZM387 529Q356 514 345 487L-43 529H387ZM310
230Q267 215 242 202L-119 241H313L310 230ZM330 21Q354 19 386 19T471 25T546 39L544 -104Q435 -132 341 -132Q249 -132 208 -117T152 -78T136 -15Q136 70 181 121T334 206L373 333H535L515 145Q513 127 500 117T444 92L336 55L330 21ZM580 464Q580 408 550 384T462
359T383 371T362 412Q362 468 389 491T477 515T559 504T580 464Z" />
<glyph unicode="&#xc0;" glyph-name="Agrave" horiz-adv-x="851" d="M392 0H192L455 625H749L793 0H592L588 99H431L392 0ZM573 258V433H563L493 258H573ZM160 4L-250 48H179L160 4ZM201 101L-209 145H220L201 101ZM242 197L-168 241H260L242 197ZM282 293L-127
337H301L282 293ZM323 389L-86 433H341L323 389ZM404 582L-4 625H422L404 582ZM363 486L-45 529H381L363 486ZM404 582L422 625H-4L404 582ZM485 765Q481 769 481 776T490 794L553 868Q562 879 569 879T582 875L771 736L730 679L556 714Q540 717 530 726L485 765ZM455
794L60 833H484Q481 829 474 822Q461 807 455 794ZM498 713L90 752H457Q463 743 498 713Z" />
<glyph unicode="&#xc1;" glyph-name="Aacute" horiz-adv-x="851" d="M392 0H192L455 625H749L793 0H592L588 99H431L392 0ZM573 258V433H563L493 258H573ZM160 4L-250 48H179L160 4ZM201 101L-209 145H220L201 101ZM242 197L-168 241H260L242 197ZM282 293L-127
337H301L282 293ZM323 389L-86 433H341L323 389ZM404 582L-4 625H422L404 582ZM363 486L-45 529H381L363 486ZM404 582L422 625H-4L404 582ZM681 875Q687 879 694 879T710 868L773 794Q782 784 782 778T780 768T733 726Q723 717 707 714L533 679L492 736L681 875ZM519
794L159 833H572L519 794ZM408 713L48 752H461L408 713Z" />
<glyph unicode="&#xc2;" glyph-name="Acircumflex" horiz-adv-x="851" d="M392 0H192L455 625H749L793 0H592L588 99H431L392 0ZM573 258V433H563L493 258H573ZM160 4L-250 48H179L160 4ZM201 101L-209 145H220L201 101ZM242 197L-168 241H260L242 197ZM282 293L-127
337H301L282 293ZM323 389L-86 433H341L323 389ZM404 582L-4 625H422L404 582ZM363 486L-45 529H381L363 486ZM404 582L422 625H-4L404 582ZM621 880H666Q674 880 679 871L762 726L696 677L618 740L519 677L471 726L603 871Q610 880 621 880ZM492 794L169 833H527L492
794ZM418 713L88 752H454L418 713Z" />
<glyph unicode="&#xc3;" glyph-name="Atilde" horiz-adv-x="851" d="M392 0H192L455 625H749L793 0H592L588 99H431L392 0ZM573 258V433H563L493 258H573ZM160 4L-250 48H179L160 4ZM201 101L-209 145H220L201 101ZM242 197L-168 241H260L242 197ZM282 293L-127
337H301L282 293ZM323 389L-86 433H341L323 389ZM404 582L-4 625H422L404 582ZM363 486L-45 529H381L363 486ZM404 582L422 625H-4L404 582ZM680 816L766 856L799 775Q670 694 656 689T629 683T608 685T592 692T579 702Q571 707 550 728L465 688L431 769Q560 850
574 855T601 861T622 859T638 852T651 842Q659 837 680 816ZM477 833L405 787L111 833H477ZM405 754L424 708L111 754H405Z" />
<glyph unicode="&#xc4;" glyph-name="Adieresis" horiz-adv-x="851" d="M392 0H192L455 625H749L793 0H592L588 99H431L392 0ZM573 258V433H563L493 258H573ZM160 4L-250 48H179L160 4ZM201 101L-209 145H220L201 101ZM242 197L-168 241H260L242 197ZM282 293L-127
337H301L282 293ZM323 389L-86 433H341L323 389ZM404 582L-4 625H422L404 582ZM363 486L-45 529H381L363 486ZM404 582L422 625H-4L404 582ZM636 799T656 823T719 848T776 837T791 800Q791 741 771 717T708 692T651 703T636 740Q636 799 656 823ZM428 799T448 823T511
848T568 837T583 800Q583 741 562 717T499 692T443 703T428 740Q428 799 448 823ZM415 833Q406 816 401 787L99 833H415ZM398 740Q398 722 401 708L99 754H398V740Z" />
<glyph unicode="&#xc5;" glyph-name="Aring" horiz-adv-x="851" d="M392 0H192L455 625H749L793 0H592L588 99H431L392 0ZM573 258V433H563L493 258H573ZM160 4L-250 48H179L160 4ZM201 101L-209 145H220L201 101ZM242 197L-168 241H260L242 197ZM282 293L-127
337H301L282 293ZM323 389L-86 433H341L323 389ZM404 582L-4 625H422L404 582ZM363 486L-45 529H381L363 486ZM404 582L422 625H-4L404 582ZM616 736Q643 736 650 743T660 762L672 829H635Q606 829 598 822T588 804L576 736H616ZM645 898Q738 898 738 818Q738 744
703 706T604 667Q511 667 511 747Q511 821 546 859T645 898ZM484 787L186 833H494Q486 807 484 787ZM481 747Q481 726 486 708L188 754H481V747Z" />
<glyph unicode="&#xc6;" glyph-name="AE" horiz-adv-x="1010" d="M392 0H192L455 625H1016L964 465H760L766 381H935L909 236H776L782 160H982L954 0H592L588 99H431L392 0ZM160 4L-250 48H179L160 4ZM201 101L-209 145H220L201 101ZM242 197L-168 241H260L242
197ZM282 293L-127 337H301L282 293ZM323 389L-86 433H341L323 389ZM404 582L-4 625H422L404 582ZM363 486L-45 529H381L363 486ZM573 258V433H563L493 258H573Z" />
<glyph unicode="&#xc7;" glyph-name="Ccedilla" horiz-adv-x="683" d="M192 317Q190 309 188 295L-205 337H195L192 317ZM181 241Q178 218 178 199L-216 241H181ZM219 433L207 392L-181 433H219ZM179 145Q183 117 186 103L-203 145H179ZM260 529Q246 503 240 489L-134
529H260ZM209 48Q222 25 239 11L-107 48H209ZM355 625Q326 607 310 592L4 625H355ZM443 -15Q541 -15 605 11L621 179Q554 155 473 155Q435 155 399 163L445 425Q450 455 472 465T545 475T656 461L712 614Q690 625 643 632T558 640Q399 640 326 562T222 312Q208
228 208 185Q208 83 262 34T443 -15ZM485 -64Q485 -105 453 -135T368 -165T268 -146L294 -58H325Q345 -58 351 -53T362 -26L370 21H428Q485 -3 485 -64ZM253 -89L71 -58H262L253 -89ZM232 -161L58 -130H241L232 -161Z" />
<glyph unicode="&#xc8;" glyph-name="Egrave" horiz-adv-x="726" d="M625 236H435L422 160H655L627 0H204L314 625H732L680 465H475L461 381H651L625 236ZM174 3L-250 48H182L174 3ZM208 196L-216 241H216L208 196ZM225 292L-199 337H233L225 292ZM242 388L-182
433H250L242 388ZM259 484L-165 529H266L259 484ZM191 100L-233 145H199L191 100ZM275 580L-148 625H283L275 580ZM383 765Q379 769 379 776T388 794L451 868Q460 879 467 879T480 875L669 736L628 679L454 714Q438 717 428 726L383 765ZM353 794L-42 833H382Q379
829 372 822Q359 807 353 794ZM396 713L-12 752H355Q361 743 396 713Z" />
<glyph unicode="&#xc9;" glyph-name="Eacute" horiz-adv-x="726" d="M625 236H435L422 160H655L627 0H204L314 625H732L680 465H475L461 381H651L625 236ZM174 3L-250 48H182L174 3ZM208 196L-216 241H216L208 196ZM225 292L-199 337H233L225 292ZM242 388L-182
433H250L242 388ZM259 484L-165 529H266L259 484ZM191 100L-233 145H199L191 100ZM275 580L-148 625H283L275 580ZM597 875Q603 879 610 879T626 868L689 794Q698 784 698 778T696 768T649 726Q639 717 623 714L449 679L408 736L597 875ZM435 794L75 833H488L435
794ZM324 713L-36 752H377L324 713Z" />
<glyph unicode="&#xca;" glyph-name="Ecircumflex" horiz-adv-x="726" d="M625 236H435L422 160H655L627 0H204L314 625H732L680 465H475L461 381H651L625 236ZM174 3L-250 48H182L174 3ZM208 196L-216 241H216L208 196ZM225 292L-199 337H233L225 292ZM242 388L-182
433H250L242 388ZM259 484L-165 529H266L259 484ZM191 100L-233 145H199L191 100ZM275 580L-148 625H283L275 580ZM538 880H583Q591 880 596 871L679 726L613 677L535 740L436 677L388 726L520 871Q528 880 538 880ZM409 794L86 833H444L409 794ZM335 713L5 752H371L335
713Z" />
<glyph unicode="&#xcb;" glyph-name="Edieresis" horiz-adv-x="726" d="M625 236H435L422 160H655L627 0H204L314 625H732L680 465H475L461 381H651L625 236ZM174 3L-250 48H182L174 3ZM208 196L-216 241H216L208 196ZM225 292L-199 337H233L225 292ZM242 388L-182
433H250L242 388ZM259 484L-165 529H266L259 484ZM191 100L-233 145H199L191 100ZM275 580L-148 625H283L275 580ZM574 799T594 823T657 848T714 837T729 800Q729 741 709 717T646 692T589 703T574 740Q574 799 594 823ZM366 799T386 823T449 848T506 837T521 800Q521
741 500 717T437 692T381 703T366 740Q366 799 386 823ZM353 833Q344 816 339 787L37 833H353ZM336 740Q336 722 339 708L37 754H336V740Z" />
<glyph unicode="&#xcc;" glyph-name="Igrave" horiz-adv-x="504" d="M204 0L314 625H504L394 0H204ZM174 3L-250 48H182L174 3ZM208 196L-216 241H216L208 196ZM225 292L-199 337H233L225 292ZM242 388L-182 433H250L242 388ZM259 484L-165 529H266L259 484ZM191
100L-233 145H199L191 100ZM275 580L-148 625H283L275 580ZM272 765Q268 769 268 776T277 794L340 868Q349 879 356 879T369 875L558 736L517 679L343 714Q327 717 317 726L272 765ZM242 794L-153 833H271Q268 829 261 822Q248 807 242 794ZM285 713L-123 752H244Q250
743 285 713Z" />
<glyph unicode="&#xcd;" glyph-name="Iacute" horiz-adv-x="504" d="M204 0L314 625H504L394 0H204ZM174 3L-250 48H182L174 3ZM208 196L-216 241H216L208 196ZM225 292L-199 337H233L225 292ZM242 388L-182 433H250L242 388ZM259 484L-165 529H266L259 484ZM191
100L-233 145H199L191 100ZM275 580L-148 625H283L275 580ZM486 875Q492 879 499 879T515 868L578 794Q587 784 587 778T585 768T538 726Q528 717 512 714L338 679L297 736L486 875ZM324 794L-36 833H377L324 794ZM213 713L-147 752H266L213 713Z" />
<glyph unicode="&#xce;" glyph-name="Icircumflex" horiz-adv-x="504" d="M204 0L314 625H504L394 0H204ZM174 3L-250 48H182L174 3ZM208 196L-216 241H216L208 196ZM225 292L-199 337H233L225 292ZM242 388L-182 433H250L242 388ZM259 484L-165 529H266L259 484ZM191
100L-233 145H199L191 100ZM275 580L-148 625H283L275 580ZM427 880H472Q480 880 485 871L568 726L502 677L424 740L325 677L277 726L409 871Q416 880 427 880ZM298 794L-25 833H333L298 794ZM224 713L-106 752H260L224 713Z" />
<glyph unicode="&#xcf;" glyph-name="Idieresis" horiz-adv-x="504" d="M204 0L314 625H504L394 0H204ZM174 3L-250 48H182L174 3ZM208 196L-216 241H216L208 196ZM225 292L-199 337H233L225 292ZM242 388L-182 433H250L242 388ZM259 484L-165 529H266L259 484ZM191
100L-233 145H199L191 100ZM275 580L-148 625H283L275 580ZM463 799T483 823T546 848T603 837T618 800Q618 741 598 717T535 692T478 703T463 740Q463 799 483 823ZM255 799T275 823T338 848T395 837T410 800Q410 741 389 717T326 692T270 703T255 740Q255 799
275 823ZM242 833Q233 816 228 787L-74 833H242ZM225 740Q225 722 228 708L-74 754H225V740Z" />
<glyph unicode="&#xd0;" glyph-name="Eth" horiz-adv-x="841" d="M471 255Q495 255 507 261T523 286L537 363H363L344 255H471ZM580 625Q709 625 763 580T818 432Q818 380 806 312Q776 144 704 72T470 0H204L314 625H580ZM554 465H475L422 160H501Q540 160 559
169T584 213L619 412Q620 418 620 428Q620 451 604 458T554 465ZM174 3L-250 48H182L174 3ZM208 196L-216 241H216L208 196ZM225 292L-199 337H233L225 292ZM242 388L-182 433H250L242 388ZM259 484L-165 529H266L259 484ZM191 100L-233 145H199L191 100ZM275 580L-148
625H283L275 580Z" />
<glyph unicode="&#xd1;" glyph-name="Ntilde" horiz-adv-x="851" d="M451 222Q447 229 447 241T449 270H441L394 0H204L314 625H493L595 403Q598 396 598 384T596 355H604L652 625H842L732 0H553L451 222ZM174 3L-250 48H182L174 3ZM208 196L-216 241H216L208
196ZM225 292L-199 337H233L225 292ZM242 388L-182 433H250L242 388ZM259 484L-165 529H266L259 484ZM191 100L-233 145H199L191 100ZM275 580L-148 625H283L275 580ZM650 816L736 856L769 775Q640 694 626 689T599 683T578 685T562 692T549 702Q541 707 520 728L435
688L401 769Q530 850 544 855T571 861T592 859T608 852T621 842Q629 837 650 816ZM447 833L375 787L81 833H447ZM375 754L394 708L81 754H375Z" />
<glyph unicode="&#xd2;" glyph-name="Ograve" horiz-adv-x="815" d="M475 156Q514 156 533 165T558 209L604 469H524Q486 469 467 460T442 416L396 156H475ZM557 640Q684 640 738 591T792 438T760 223T657 48T451 -15T261 34T207 187Q207 236 221 316T258 455T320
557Q395 640 557 640ZM192 317Q190 309 188 295L-205 337H195L192 317ZM181 241Q178 218 178 199L-216 241H181ZM219 433L207 392L-181 433H219ZM179 145Q183 117 186 103L-203 145H179ZM260 529Q246 503 240 489L-134 529H260ZM209 48Q222 25 239 11L-107 48H209ZM355
625Q326 607 310 592L4 625H355ZM427 765Q423 769 423 776T432 794L495 868Q504 879 511 879T524 875L713 736L672 679L498 714Q482 717 472 726L427 765ZM397 794L2 833H426Q423 829 416 822Q403 807 397 794ZM440 713L32 752H399Q405 743 440 713Z" />
<glyph unicode="&#xd3;" glyph-name="Oacute" horiz-adv-x="815" d="M475 156Q514 156 533 165T558 209L604 469H524Q486 469 467 460T442 416L396 156H475ZM557 640Q684 640 738 591T792 438T760 223T657 48T451 -15T261 34T207 187Q207 236 221 316T258 455T320
557Q395 640 557 640ZM192 317Q190 309 188 295L-205 337H195L192 317ZM181 241Q178 218 178 199L-216 241H181ZM219 433L207 392L-181 433H219ZM179 145Q183 117 186 103L-203 145H179ZM260 529Q246 503 240 489L-134 529H260ZM209 48Q222 25 239 11L-107 48H209ZM355
625Q326 607 310 592L4 625H355ZM642 875Q648 879 655 879T671 868L734 794Q743 784 743 778T741 768T694 726Q684 717 668 714L494 679L453 736L642 875ZM480 794L120 833H533L480 794ZM369 713L9 752H422L369 713Z" />
<glyph unicode="&#xd4;" glyph-name="Ocircumflex" horiz-adv-x="815" d="M475 156Q514 156 533 165T558 209L604 469H524Q486 469 467 460T442 416L396 156H475ZM557 640Q684 640 738 591T792 438T760 223T657 48T451 -15T261 34T207 187Q207 236 221 316T258
455T320 557Q395 640 557 640ZM192 317Q190 309 188 295L-205 337H195L192 317ZM181 241Q178 218 178 199L-216 241H181ZM219 433L207 392L-181 433H219ZM179 145Q183 117 186 103L-203 145H179ZM260 529Q246 503 240 489L-134 529H260ZM209 48Q222 25 239 11L-107
48H209ZM355 625Q326 607 310 592L4 625H355ZM573 880H618Q626 880 631 871L714 726L648 677L570 740L471 677L423 726L555 871Q562 880 573 880ZM444 794L121 833H479L444 794ZM370 713L40 752H406L370 713Z" />
<glyph unicode="&#xd5;" glyph-name="Otilde" horiz-adv-x="815" d="M475 156Q514 156 533 165T558 209L604 469H524Q486 469 467 460T442 416L396 156H475ZM557 640Q684 640 738 591T792 438T760 223T657 48T451 -15T261 34T207 187Q207 236 221 316T258 455T320
557Q395 640 557 640ZM192 317Q190 309 188 295L-205 337H195L192 317ZM181 241Q178 218 178 199L-216 241H181ZM219 433L207 392L-181 433H219ZM179 145Q183 117 186 103L-203 145H179ZM260 529Q246 503 240 489L-134 529H260ZM209 48Q222 25 239 11L-107 48H209ZM355
625Q326 607 310 592L4 625H355ZM647 816L733 856L766 775Q637 694 623 689T596 683T575 685T559 692T546 702Q538 707 517 728L432 688L398 769Q527 850 541 855T568 861T589 859T605 852T618 842Q626 837 647 816ZM444 833L372 787L78 833H444ZM372 754L391 708L78
754H372Z" />
<glyph unicode="&#xd6;" glyph-name="Odieresis" horiz-adv-x="815" d="M475 156Q514 156 533 165T558 209L604 469H524Q486 469 467 460T442 416L396 156H475ZM557 640Q684 640 738 591T792 438T760 223T657 48T451 -15T261 34T207 187Q207 236 221 316T258 455T320
557Q395 640 557 640ZM192 317Q190 309 188 295L-205 337H195L192 317ZM181 241Q178 218 178 199L-216 241H181ZM219 433L207 392L-181 433H219ZM179 145Q183 117 186 103L-203 145H179ZM260 529Q246 503 240 489L-134 529H260ZM209 48Q222 25 239 11L-107 48H209ZM355
625Q326 607 310 592L4 625H355ZM618 799T638 823T701 848T758 837T773 800Q773 741 753 717T690 692T633 703T618 740Q618 799 638 823ZM410 799T430 823T493 848T550 837T565 800Q565 741 544 717T481 692T425 703T410 740Q410 799 430 823ZM397 833Q388 816
383 787L81 833H397ZM380 740Q380 722 383 708L81 754H380V740Z" />
<glyph unicode="&#xd7;" glyph-name="multiply" horiz-adv-x="600" d="M129 75L50 177L202 312L97 447L212 549L316 414L468 549L547 447L396 312L500 177L385 75L281 210L129 75Z" />
<glyph unicode="&#xd8;" glyph-name="Oslash" horiz-adv-x="815" d="M697 704H747L303 -79H251L697 704ZM475 156Q514 156 533 165T558 209L604 469H524Q486 469 467 460T442 416L396 156H475ZM557 640Q684 640 738 591T792 438T760 223T657 48T451 -15T261 34T207
187Q207 236 221 316T258 455T320 557Q395 640 557 640ZM192 317Q190 309 188 295L-205 337H195L192 317ZM181 241Q178 218 178 199L-216 241H181ZM219 433L207 392L-181 433H219ZM179 145Q183 117 186 103L-203 145H179ZM260 529Q246 503 240 489L-134 529H260ZM209
48Q222 25 239 11L-107 48H209ZM355 625Q326 607 310 592L4 625H355Z" />
<glyph unicode="&#xd9;" glyph-name="Ugrave" horiz-adv-x="814" d="M238 388L-186 433H246L238 388ZM221 292L-202 337H229L221 292ZM272 580L-151 625H280L272 580ZM-168 529H263L255 484L-168 529ZM212 241Q208 208 207 196L-216 241H212ZM205 145Q205 121
208 100L-215 145H205ZM222 48Q235 20 254 3L-169 48H222ZM486 156Q521 156 536 165T557 209L631 625H821L759 274Q744 189 725 137T670 49T584 -1T453 -15Q332 -15 284 21T235 147Q235 196 249 274L311 625H501L418 156H486ZM427 765Q423 769 423 776T432 794L495
868Q504 879 511 879T524 875L713 736L672 679L498 714Q482 717 472 726L427 765ZM397 794L2 833H426Q423 829 416 822Q403 807 397 794ZM440 713L32 752H399Q405 743 440 713Z" />
<glyph unicode="&#xda;" glyph-name="Uacute" horiz-adv-x="814" d="M238 388L-186 433H246L238 388ZM221 292L-202 337H229L221 292ZM272 580L-151 625H280L272 580ZM-168 529H263L255 484L-168 529ZM212 241Q208 208 207 196L-216 241H212ZM205 145Q205 121
208 100L-215 145H205ZM222 48Q235 20 254 3L-169 48H222ZM486 156Q521 156 536 165T557 209L631 625H821L759 274Q744 189 725 137T670 49T584 -1T453 -15Q332 -15 284 21T235 147Q235 196 249 274L311 625H501L418 156H486ZM641 875Q647 879 654 879T670 868L733
794Q742 784 742 778T740 768T693 726Q683 717 667 714L493 679L452 736L641 875ZM479 794L119 833H532L479 794ZM368 713L8 752H421L368 713Z" />
<glyph unicode="&#xdb;" glyph-name="Ucircumflex" horiz-adv-x="814" d="M238 388L-186 433H246L238 388ZM221 292L-202 337H229L221 292ZM272 580L-151 625H280L272 580ZM-168 529H263L255 484L-168 529ZM212 241Q208 208 207 196L-216 241H212ZM205 145Q205
121 208 100L-215 145H205ZM222 48Q235 20 254 3L-169 48H222ZM486 156Q521 156 536 165T557 209L631 625H821L759 274Q744 189 725 137T670 49T584 -1T453 -15Q332 -15 284 21T235 147Q235 196 249 274L311 625H501L418 156H486ZM582 880H627Q635 880 640 871L723
726L657 677L579 740L480 677L432 726L564 871Q572 880 582 880ZM453 794L130 833H488L453 794ZM379 713L49 752H415L379 713Z" />
<glyph unicode="&#xdc;" glyph-name="Udieresis" horiz-adv-x="814" d="M238 388L-186 433H246L238 388ZM221 292L-202 337H229L221 292ZM272 580L-151 625H280L272 580ZM-168 529H263L255 484L-168 529ZM212 241Q208 208 207 196L-216 241H212ZM205 145Q205 121
208 100L-215 145H205ZM222 48Q235 20 254 3L-169 48H222ZM486 156Q521 156 536 165T557 209L631 625H821L759 274Q744 189 725 137T670 49T584 -1T453 -15Q332 -15 284 21T235 147Q235 196 249 274L311 625H501L418 156H486ZM618 799T638 823T701 848T758 837T773
800Q773 741 753 717T690 692T633 703T618 740Q618 799 638 823ZM410 799T430 823T493 848T550 837T565 800Q565 741 544 717T481 692T425 703T410 740Q410 799 430 823ZM397 833Q388 816 383 787L81 833H397ZM380 740Q380 722 383 708L81 754H380V740Z" />
<glyph unicode="&#xdd;" glyph-name="Yacute" horiz-adv-x="654" d="M233 3L-190 48H241L233 3ZM250 100L-173 145H257L250 100ZM257 196L-167 241H248L257 196ZM238 292L-186 337H229L238 292ZM191 529L200 484L-223 529H191ZM210 433L219 388L-204 433H210ZM182
580L-241 625H173L182 580ZM413 625L426 405H433L525 625H735L483 170L454 0H264L293 170L203 625H413ZM523 875Q529 879 536 879T552 868L615 794Q624 784 624 778T622 768T575 726Q565 717 549 714L375 679L334 736L523 875ZM361 794L1 833H414L361 794ZM250
713L-110 752H303L250 713Z" />
<glyph unicode="&#xde;" glyph-name="Thorn" horiz-adv-x="769" d="M174 3L-250 48H182L174 3ZM208 196L-216 241H216L208 196ZM241 388L-182 433H249L241 388ZM258 484L-165 529H266L258 484ZM191 100L-233 145H199L191 100ZM275 580L-148 625H283L275 580ZM224
292L-199 337H232L224 292ZM531 76H407L394 0H204L314 625H504L490 550H600Q771 550 771 391Q771 315 750 256T703 161T633 101T531 76ZM479 236Q513 236 530 243T553 278L565 348Q566 352 566 359Q566 378 551 384T506 390H462L435 236H479Z" />
<glyph unicode="&#xdf;" glyph-name="germandbls" horiz-adv-x="773" d="M570 675Q755 675 755 550Q755 449 639 314Q778 314 778 198Q778 101 720 43T561 -15T428 -1L472 141Q511 130 532 130T568 134L574 166Q519 166 499 183T478 244T518 373T559 487Q559 519
519 519Q504 519 484 515L394 0H204L269 370H222L245 500H292L309 560Q331 636 404 657Q466 675 570 675ZM174 3L-250 48H182L174 3ZM208 196L-216 241H216L208 196ZM225 292L-199 337H233L225 292ZM194 388L-230 433H202L194 388ZM212 484L-212 529H219L212 484ZM191
100L-233 145H199L191 100ZM306 625Q292 603 285 581L-125 625H306Z" />
<glyph unicode="&#xe0;" glyph-name="agrave" horiz-adv-x="758" d="M526 0L522 81H396L365 0H192L414 529H662L701 0H526ZM522 224V376H508L449 224H522ZM160 4L-250 48H179L160 4ZM201 101L-209 145H220L201 101ZM242 197L-168 241H260L242 197ZM282 293L-127
337H301L282 293ZM323 389L-86 433H341L323 389ZM363 486L-45 529H381L363 486ZM389 655Q385 659 385 666T394 684L457 758Q466 769 473 769T486 765L675 626L634 569L460 604Q444 607 434 616L389 655ZM359 684L-36 723H388Q385 719 378 712Q365 697 359 684ZM402
603L-6 642H361Q367 633 402 603Z" />
<glyph unicode="&#xe1;" glyph-name="aacute" horiz-adv-x="758" d="M526 0L522 81H396L365 0H192L414 529H662L701 0H526ZM522 224V376H508L449 224H522ZM160 4L-250 48H179L160 4ZM201 101L-209 145H220L201 101ZM242 197L-168 241H260L242 197ZM282 293L-127
337H301L282 293ZM323 389L-86 433H341L323 389ZM363 486L-45 529H381L363 486ZM643 765Q649 769 656 769T672 758L735 684Q744 674 744 668T742 658T695 616Q685 607 669 604L495 569L454 626L643 765ZM481 684L121 723H534L481 684ZM370 603L10 642H423L370 603Z"
/>
<glyph unicode="&#xe2;" glyph-name="acircumflex" horiz-adv-x="758" d="M526 0L522 81H396L365 0H192L414 529H662L701 0H526ZM522 224V376H508L449 224H522ZM160 4L-250 48H179L160 4ZM201 101L-209 145H220L201 101ZM242 197L-168 241H260L242 197ZM282 293L-127
337H301L282 293ZM323 389L-86 433H341L323 389ZM363 486L-45 529H381L363 486ZM574 770H619Q627 770 632 761L715 616L649 567L571 630L472 567L424 616L556 761Q564 770 574 770ZM445 684L122 723H480L445 684ZM371 603L41 642H407L371 603Z" />
<glyph unicode="&#xe3;" glyph-name="atilde" horiz-adv-x="758" d="M526 0L522 81H396L365 0H192L414 529H662L701 0H526ZM522 224V376H508L449 224H522ZM160 4L-250 48H179L160 4ZM201 101L-209 145H220L201 101ZM242 197L-168 241H260L242 197ZM282 293L-127
337H301L282 293ZM323 389L-86 433H341L323 389ZM363 486L-45 529H381L363 486ZM634 706L720 746L753 665Q624 584 610 579T583 573T562 575T546 582T533 592Q525 597 504 618L419 578L385 659Q514 740 528 745T555 751T576 749T592 742T605 732Q613 727 634 706ZM431
723L359 677L65 723H431ZM359 644L378 598L65 644H359Z" />
<glyph unicode="&#xe4;" glyph-name="adieresis" horiz-adv-x="758" d="M526 0L522 81H396L365 0H192L414 529H662L701 0H526ZM522 224V376H508L449 224H522ZM160 4L-250 48H179L160 4ZM201 101L-209 145H220L201 101ZM242 197L-168 241H260L242 197ZM282 293L-127
337H301L282 293ZM323 389L-86 433H341L323 389ZM363 486L-45 529H381L363 486ZM599 689T619 713T682 738T739 727T754 690Q754 631 734 607T671 582T614 593T599 630Q599 689 619 713ZM391 689T411 713T474 738T531 727T546 690Q546 631 525 607T462 582T406 593T391
630Q391 689 411 713ZM378 723Q369 706 364 677L62 723H378ZM361 630Q361 612 364 598L62 644H361V630Z" />
<glyph unicode="&#xe5;" glyph-name="aring" horiz-adv-x="758" d="M526 0L522 81H396L365 0H192L414 529H662L701 0H526ZM522 224V376H508L449 224H522ZM160 4L-250 48H179L160 4ZM201 101L-209 145H220L201 101ZM242 197L-168 241H260L242 197ZM282 293L-127
337H301L282 293ZM323 389L-86 433H341L323 389ZM363 486L-45 529H381L363 486ZM557 626Q584 626 591 633T601 652L613 719H576Q547 719 539 712T529 694L517 626H557ZM586 788Q679 788 679 708Q679 634 644 596T545 557Q452 557 452 637Q452 711 487 749T586 788ZM425
677L127 723H435Q427 697 425 677ZM422 637Q422 616 427 598L129 644H422V637Z" />
<glyph unicode="&#xe6;" glyph-name="ae" horiz-adv-x="935" d="M838 215H685L690 147H862L836 0H526L522 81H396L365 0H192L414 529H927L880 379H673L678 311H855L838 215ZM160 4L-250 48H179L160 4ZM201 101L-209 145H220L201 101ZM282 293L-127 337H301L282
293ZM242 197L-168 241H260L242 197ZM323 389L-86 433H341L323 389ZM363 486L-45 529H381L363 486ZM522 224V376H508L449 224H522Z" />
<glyph unicode="&#xe7;" glyph-name="ccedilla" horiz-adv-x="620" d="M539 11L555 161Q495 139 444 139T371 144L410 358Q414 378 430 385T488 392T579 378L630 517Q594 539 497 539Q362 539 301 474T214 264Q202 195 202 156Q202 69 247 29T389 -12T539 11ZM179
241Q175 210 174 199L-220 241H179ZM198 337L189 295L-202 337H198ZM173 145Q173 129 177 103L-216 145H173ZM233 433Q221 407 216 393L-162 433H233ZM194 48Q206 24 220 11L-129 48H194ZM320 529Q296 515 279 496L-28 529H320ZM461 -64Q461 -105 429 -135T344
-165T244 -146L270 -58H301Q321 -58 327 -53T338 -26L346 21H404Q461 -3 461 -64ZM229 -89L47 -58H238L229 -89ZM208 -161L34 -130H217L208 -161Z" />
<glyph unicode="&#xe8;" glyph-name="egrave" horiz-adv-x="656" d="M559 215H410L398 147H583L557 0H204L296 529H648L601 379H438L426 311H576L559 215ZM171 3L-253 48H179L171 3ZM205 196L-219 241H213L205 196ZM222 292L-202 337H230L222 292ZM239 388L-185
433H247L239 388ZM256 484L-168 529H263L256 484ZM188 100L-236 145H196L188 100ZM338 655Q334 659 334 666T343 684L406 758Q415 769 422 769T435 765L624 626L583 569L409 604Q393 607 383 616L338 655ZM308 684L-87 723H337Q334 719 327 712Q314 697 308 684ZM351
603L-57 642H310Q316 633 351 603Z" />
<glyph unicode="&#xe9;" glyph-name="eacute" horiz-adv-x="656" d="M559 215H410L398 147H583L557 0H204L296 529H648L601 379H438L426 311H576L559 215ZM171 3L-253 48H179L171 3ZM205 196L-219 241H213L205 196ZM222 292L-202 337H230L222 292ZM239 388L-185
433H247L239 388ZM256 484L-168 529H263L256 484ZM188 100L-236 145H196L188 100ZM532 765Q538 769 545 769T561 758L624 684Q633 674 633 668T631 658T584 616Q574 607 558 604L384 569L343 626L532 765ZM370 684L10 723H423L370 684ZM259 603L-101 642H312L259
603Z" />
<glyph unicode="&#xea;" glyph-name="ecircumflex" horiz-adv-x="656" d="M559 215H410L398 147H583L557 0H204L296 529H648L601 379H438L426 311H576L559 215ZM171 3L-253 48H179L171 3ZM205 196L-219 241H213L205 196ZM222 292L-202 337H230L222 292ZM239 388L-185
433H247L239 388ZM256 484L-168 529H263L256 484ZM188 100L-236 145H196L188 100ZM483 770H528Q536 770 541 761L624 616L558 567L480 630L381 567L333 616L465 761Q472 770 483 770ZM354 684L31 723H389L354 684ZM280 603L-50 642H316L280 603Z" />
<glyph unicode="&#xeb;" glyph-name="edieresis" horiz-adv-x="656" d="M559 215H410L398 147H583L557 0H204L296 529H648L601 379H438L426 311H576L559 215ZM171 3L-253 48H179L171 3ZM205 196L-219 241H213L205 196ZM222 292L-202 337H230L222 292ZM239 388L-185
433H247L239 388ZM256 484L-168 529H263L256 484ZM188 100L-236 145H196L188 100ZM508 689T528 713T591 738T648 727T663 690Q663 631 643 607T580 582T523 593T508 630Q508 689 528 713ZM300 689T320 713T383 738T440 727T455 690Q455 631 434 607T371 582T315
593T300 630Q300 689 320 713ZM287 723Q278 706 273 677L-29 723H287ZM270 630Q270 612 273 598L-29 644H270V630Z" />
<glyph unicode="&#xec;" glyph-name="igrave" horiz-adv-x="489" d="M204 0L296 529H472L379 0H204ZM171 3L-253 48H179L171 3ZM205 196L-219 241H213L205 196ZM222 292L-202 337H230L222 292ZM239 388L-185 433H247L239 388ZM256 484L-168 529H263L256 484ZM188
100L-236 145H196L188 100ZM254 655Q250 659 250 666T259 684L322 758Q331 769 338 769T351 765L540 626L499 569L325 604Q309 607 299 616L254 655ZM224 684L-171 723H253Q250 719 243 712Q230 697 224 684ZM267 603L-141 642H226Q232 633 267 603Z" />
<glyph unicode="&#xed;" glyph-name="iacute" horiz-adv-x="489" d="M204 0L296 529H472L379 0H204ZM171 3L-253 48H179L171 3ZM205 196L-219 241H213L205 196ZM222 292L-202 337H230L222 292ZM239 388L-185 433H247L239 388ZM256 484L-168 529H263L256 484ZM188
100L-236 145H196L188 100ZM469 765Q475 769 482 769T498 758L561 684Q570 674 570 668T568 658T521 616Q511 607 495 604L321 569L280 626L469 765ZM307 684L-53 723H360L307 684ZM196 603L-164 642H249L196 603Z" />
<glyph unicode="&#xee;" glyph-name="icircumflex" horiz-adv-x="489" d="M204 0L296 529H472L379 0H204ZM171 3L-253 48H179L171 3ZM205 196L-219 241H213L205 196ZM222 292L-202 337H230L222 292ZM239 388L-185 433H247L239 388ZM256 484L-168 529H263L256 484ZM188
100L-236 145H196L188 100ZM400 770H445Q453 770 458 761L541 616L475 567L397 630L298 567L250 616L382 761Q390 770 400 770ZM271 684L-52 723H306L271 684ZM197 603L-133 642H233L197 603Z" />
<glyph unicode="&#xef;" glyph-name="idieresis" horiz-adv-x="489" d="M204 0L296 529H472L379 0H204ZM171 3L-253 48H179L171 3ZM205 196L-219 241H213L205 196ZM222 292L-202 337H230L222 292ZM239 388L-185 433H247L239 388ZM256 484L-168 529H263L256 484ZM188
100L-236 145H196L188 100ZM435 689T455 713T518 738T575 727T590 690Q590 631 570 607T507 582T450 593T435 630Q435 689 455 713ZM227 689T247 713T310 738T367 727T382 690Q382 631 361 607T298 582T242 593T227 630Q227 689 247 713ZM214 723Q205 706 200 677L-102
723H214ZM197 630Q197 612 200 598L-102 644H197V630Z" />
<glyph unicode="&#xf0;" glyph-name="eth" horiz-adv-x="775" d="M450 220Q469 220 478 224T491 245L503 306H363L348 220H450ZM521 529Q630 529 677 490T724 365Q724 324 713 264Q688 122 627 61T428 0H204L296 529H521ZM497 383H439L397 143H455Q484 143 499
150T519 181L548 346Q549 350 549 362Q549 383 497 383ZM171 3L-253 48H179L171 3ZM205 196L-219 241H213L205 196ZM222 292L-202 337H230L222 292ZM239 388L-185 433H247L239 388ZM256 484L-168 529H263L256 484ZM188 100L-236 145H196L188 100Z" />
<glyph unicode="&#xf1;" glyph-name="ntilde" horiz-adv-x="769" d="M514 0L411 198H407L372 0H204L296 529H432L536 332H542L576 529H743L650 0H514ZM171 3L-253 48H179L171 3ZM205 196L-219 241H213L205 196ZM222 292L-202 337H230L222 292ZM239 388L-185 433H247L239
388ZM256 484L-168 529H263L256 484ZM188 100L-236 145H196L188 100ZM599 706L685 746L718 665Q589 584 575 579T548 573T527 575T511 582T498 592Q490 597 469 618L384 578L350 659Q479 740 493 745T520 751T541 749T557 742T570 732Q578 727 599 706ZM396 723L324
677L30 723H396ZM324 644L343 598L30 644H324Z" />
<glyph unicode="&#xf2;" glyph-name="ograve" horiz-adv-x="759" d="M509 539Q617 539 663 498T709 368Q709 325 698 264Q673 120 610 54T412 -12Q306 -12 261 29T216 158Q216 203 227 264Q252 408 314 473T509 539ZM441 140Q470 140 484 147T504 178L542 387H481Q453
387 438 380T419 350L382 140H441ZM192 241Q188 210 187 199L-207 241H192ZM211 337L202 295L-189 337H211ZM186 145Q186 129 190 103L-203 145H186ZM246 433Q234 407 229 393L-149 433H246ZM207 48Q219 24 233 11L-116 48H207ZM333 529Q309 515 292 496L-15 529H333ZM389
655Q385 659 385 666T394 684L457 758Q466 769 473 769T486 765L675 626L634 569L460 604Q444 607 434 616L389 655ZM359 684L-36 723H388Q385 719 378 712Q365 697 359 684ZM402 603L-6 642H361Q367 633 402 603Z" />
<glyph unicode="&#xf3;" glyph-name="oacute" horiz-adv-x="759" d="M509 539Q617 539 663 498T709 368Q709 325 698 264Q673 120 610 54T412 -12Q306 -12 261 29T216 158Q216 203 227 264Q252 408 314 473T509 539ZM441 140Q470 140 484 147T504 178L542 387H481Q453
387 438 380T419 350L382 140H441ZM192 241Q188 210 187 199L-207 241H192ZM211 337L202 295L-189 337H211ZM186 145Q186 129 190 103L-203 145H186ZM246 433Q234 407 229 393L-149 433H246ZM207 48Q219 24 233 11L-116 48H207ZM333 529Q309 515 292 496L-15 529H333ZM595
765Q601 769 608 769T624 758L687 684Q696 674 696 668T694 658T647 616Q637 607 621 604L447 569L406 626L595 765ZM433 684L73 723H486L433 684ZM322 603L-38 642H375L322 603Z" />
<glyph unicode="&#xf4;" glyph-name="ocircumflex" horiz-adv-x="759" d="M509 539Q617 539 663 498T709 368Q709 325 698 264Q673 120 610 54T412 -12Q306 -12 261 29T216 158Q216 203 227 264Q252 408 314 473T509 539ZM441 140Q470 140 484 147T504 178L542
387H481Q453 387 438 380T419 350L382 140H441ZM192 241Q188 210 187 199L-207 241H192ZM211 337L202 295L-189 337H211ZM186 145Q186 129 190 103L-203 145H186ZM246 433Q234 407 229 393L-149 433H246ZM207 48Q219 24 233 11L-116 48H207ZM333 529Q309 515 292
496L-15 529H333ZM525 770H570Q578 770 583 761L666 616L600 567L522 630L423 567L375 616L507 761Q514 770 525 770ZM396 684L73 723H431L396 684ZM322 603L-8 642H358L322 603Z" />
<glyph unicode="&#xf5;" glyph-name="otilde" horiz-adv-x="759" d="M509 539Q617 539 663 498T709 368Q709 325 698 264Q673 120 610 54T412 -12Q306 -12 261 29T216 158Q216 203 227 264Q252 408 314 473T509 539ZM441 140Q470 140 484 147T504 178L542 387H481Q453
387 438 380T419 350L382 140H441ZM192 241Q188 210 187 199L-207 241H192ZM211 337L202 295L-189 337H211ZM186 145Q186 129 190 103L-203 145H186ZM246 433Q234 407 229 393L-149 433H246ZM207 48Q219 24 233 11L-116 48H207ZM333 529Q309 515 292 496L-15 529H333ZM604
706L690 746L723 665Q594 584 580 579T553 573T532 575T516 582T503 592Q495 597 474 618L389 578L355 659Q484 740 498 745T525 751T546 749T562 742T575 732Q583 727 604 706ZM401 723L329 677L35 723H401ZM329 644L348 598L35 644H329Z" />
<glyph unicode="&#xf6;" glyph-name="odieresis" horiz-adv-x="759" d="M509 539Q617 539 663 498T709 368Q709 325 698 264Q673 120 610 54T412 -12Q306 -12 261 29T216 158Q216 203 227 264Q252 408 314 473T509 539ZM441 140Q470 140 484 147T504 178L542 387H481Q453
387 438 380T419 350L382 140H441ZM192 241Q188 210 187 199L-207 241H192ZM211 337L202 295L-189 337H211ZM186 145Q186 129 190 103L-203 145H186ZM246 433Q234 407 229 393L-149 433H246ZM207 48Q219 24 233 11L-116 48H207ZM333 529Q309 515 292 496L-15 529H333ZM570
689T590 713T653 738T710 727T725 690Q725 631 705 607T642 582T585 593T570 630Q570 689 590 713ZM362 689T382 713T445 738T502 727T517 690Q517 631 496 607T433 582T377 593T362 630Q362 689 382 713ZM349 723Q340 706 335 677L33 723H349ZM332 630Q332 612
335 598L33 644H332V630Z" />
<glyph unicode="&#xf7;" glyph-name="divide" horiz-adv-x="600" d="M418 554L401 457Q396 428 359 428H283Q250 428 250 450Q250 455 267 547Q272 575 309 575H385Q418 575 418 554ZM351 174L334 77Q329 48 292 48H216Q183 48 183 70Q183 75 200 167Q205 195
242 195H318Q351 195 351 174ZM71 240L96 384H529L504 240H71Z" />
<glyph unicode="&#xf8;" glyph-name="oslash" horiz-adv-x="759" d="M609 655H649L317 -128H275L609 655ZM509 539Q617 539 663 498T709 368Q709 325 698 264Q673 120 610 54T412 -12Q306 -12 261 29T216 158Q216 203 227 264Q252 408 314 473T509 539ZM441 140Q470
140 484 147T504 178L542 387H481Q453 387 438 380T419 350L382 140H441ZM192 241Q188 210 187 199L-207 241H192ZM211 337L202 295L-189 337H211ZM186 145Q186 129 190 103L-203 145H186ZM246 433Q234 407 229 393L-149 433H246ZM207 48Q219 24 233 11L-116 48H207ZM333
529Q309 515 292 496L-15 529H333Z" />
<glyph unicode="&#xf9;" glyph-name="ugrave" horiz-adv-x="727" d="M205 196L-219 241H213L205 196ZM222 292L-202 337H230L222 292ZM239 388L-185 433H247L239 388ZM256 484L-168 529H263L256 484ZM201 145V125Q201 108 202 100L-222 145H201ZM240 3L-184 48H211Q222
20 240 3ZM445 140Q472 140 482 146T497 178L560 529H728L676 231Q652 91 599 40T416 -12Q313 -12 272 18T231 125Q231 167 242 231L295 529H463L395 140H445ZM373 655Q369 659 369 666T378 684L441 758Q450 769 457 769T470 765L659 626L618 569L444 604Q428 607
418 616L373 655ZM343 684L-52 723H372Q369 719 362 712Q349 697 343 684ZM386 603L-22 642H345Q351 633 386 603Z" />
<glyph unicode="&#xfa;" glyph-name="uacute" horiz-adv-x="727" d="M205 196L-219 241H213L205 196ZM222 292L-202 337H230L222 292ZM239 388L-185 433H247L239 388ZM256 484L-168 529H263L256 484ZM201 145V125Q201 108 202 100L-222 145H201ZM240 3L-184 48H211Q222
20 240 3ZM445 140Q472 140 482 146T497 178L560 529H728L676 231Q652 91 599 40T416 -12Q313 -12 272 18T231 125Q231 167 242 231L295 529H463L395 140H445ZM589 765Q595 769 602 769T618 758L681 684Q690 674 690 668T688 658T641 616Q631 607 615 604L441 569L400
626L589 765ZM427 684L67 723H480L427 684ZM316 603L-44 642H369L316 603Z" />
<glyph unicode="&#xfb;" glyph-name="ucircumflex" horiz-adv-x="727" d="M205 196L-219 241H213L205 196ZM222 292L-202 337H230L222 292ZM239 388L-185 433H247L239 388ZM256 484L-168 529H263L256 484ZM201 145V125Q201 108 202 100L-222 145H201ZM240 3L-184
48H211Q222 20 240 3ZM445 140Q472 140 482 146T497 178L560 529H728L676 231Q652 91 599 40T416 -12Q313 -12 272 18T231 125Q231 167 242 231L295 529H463L395 140H445ZM530 770H575Q583 770 588 761L671 616L605 567L527 630L428 567L380 616L512 761Q520 770
530 770ZM401 684L78 723H436L401 684ZM327 603L-3 642H363L327 603Z" />
<glyph unicode="&#xfc;" glyph-name="udieresis" horiz-adv-x="727" d="M205 196L-219 241H213L205 196ZM222 292L-202 337H230L222 292ZM239 388L-185 433H247L239 388ZM256 484L-168 529H263L256 484ZM201 145V125Q201 108 202 100L-222 145H201ZM240 3L-184
48H211Q222 20 240 3ZM445 140Q472 140 482 146T497 178L560 529H728L676 231Q652 91 599 40T416 -12Q313 -12 272 18T231 125Q231 167 242 231L295 529H463L395 140H445ZM563 689T583 713T646 738T703 727T718 690Q718 631 698 607T635 582T578 593T563 630Q563
689 583 713ZM355 689T375 713T438 738T495 727T510 690Q510 631 489 607T426 582T370 593T355 630Q355 689 375 713ZM342 723Q333 706 328 677L26 723H342ZM325 630Q325 612 328 598L26 644H325V630Z" />
<glyph unicode="&#xfd;" glyph-name="yacute" horiz-adv-x="635" d="M234 3L-190 48H242L234 3ZM251 100L-173 145H259L251 100ZM211 388L-213 433H202L211 388ZM191 484L-233 529H182L191 484ZM231 292L-193 337H222L231 292ZM251 196L-173 241H241L251 196ZM384
529L406 337H412L495 529H670L458 151L433 0H264L290 151L212 529H384ZM508 765Q514 769 521 769T537 758L600 684Q609 674 609 668T607 658T560 616Q550 607 534 604L360 569L319 626L508 765ZM346 684L-14 723H399L346 684ZM235 603L-125 642H288L235 603Z" />
<glyph unicode="&#xfe;" glyph-name="thorn" horiz-adv-x="748" d="M480 62H383L372 0H204L295 529H465L454 467H539Q684 467 684 330Q684 268 666 216T627 134T568 83T480 62ZM502 294Q502 295 503 300Q503 321 460 321H428L407 197H438Q461 197 474 202T490
226L502 294ZM171 3L-253 48H179L171 3ZM205 196L-219 241H213L205 196ZM222 292L-202 337H230L222 292ZM239 388L-185 433H247L239 388ZM256 484L-168 529H263L256 484ZM188 100L-236 145H196L188 100Z" />
<glyph unicode="&#xff;" glyph-name="ydieresis" horiz-adv-x="635" d="M234 3L-190 48H242L234 3ZM251 100L-173 145H259L251 100ZM211 388L-213 433H202L211 388ZM191 484L-233 529H182L191 484ZM231 292L-193 337H222L231 292ZM251 196L-173 241H241L251 196ZM384
529L406 337H412L495 529H670L458 151L433 0H264L290 151L212 529H384ZM491 689T511 713T574 738T631 727T646 690Q646 631 626 607T563 582T506 593T491 630Q491 689 511 713ZM283 689T303 713T366 738T423 727T438 690Q438 631 417 607T354 582T298 593T283 630Q283
689 303 713ZM270 723Q261 706 256 677L-46 723H270ZM253 630Q253 612 256 598L-46 644H253V630Z" />
<glyph unicode="&#x2013;" glyph-name="endash" horiz-adv-x="595" d="M535 196L31 241H543L535 196ZM552 292L48 337H560L552 292Z" />
<glyph unicode="&#x2014;" glyph-name="emdash" horiz-adv-x="854" d="M789 196L45 241H797L789 196ZM806 292L62 337H814L806 292Z" />
<glyph unicode="&#x2018;" glyph-name="quoteleft" horiz-adv-x="360" d="M111 427Q105 404 105 388L-218 433H112L111 427ZM152 529Q137 505 129 485L-178 529H152ZM110 337Q120 305 154 292L-166 337H110ZM348 446Q348 313 224 313Q175 313 155 328T135 371T140
420L143 432Q155 478 191 534L280 670L360 641L302 496Q327 492 337 480T348 446Z" />
<glyph unicode="&#x2019;" glyph-name="quoteright" horiz-adv-x="458" d="M193 491V484L-131 529H198Q193 519 193 491ZM179 293L-134 337H196L179 293ZM230 422L217 389L-99 433H213Q218 427 230 422ZM238 578T263 601T343 625T417 610T437 560Q437 491 381
404L293 268L213 297L269 441Q223 449 223 491Q223 503 226 518Q238 578 263 601Z" />
<glyph unicode="&#x201a;" glyph-name="quotesinglbase" horiz-adv-x="325" d="M105 159T130 182T210 206T284 191T304 141Q304 72 248 -15L160 -151L80 -122L136 22Q90 30 90 72Q90 84 93 99Q105 159 130 182ZM-154 48H59Q71 10 97 -1L-154 48ZM72 145Q66 125
63 100L-159 145H72Z" />
<glyph unicode="&#x201c;" glyph-name="quotedblleft" horiz-adv-x="597" d="M111 427Q105 404 105 388L-218 433H112L111 427ZM152 529Q137 505 129 485L-178 529H152ZM110 337Q120 305 154 292L-166 337H110ZM348 446Q348 313 224 313Q175 313 155 328T135 371T140
420L143 432Q155 478 191 534L280 670L360 641L302 496Q327 492 337 480T348 446ZM585 446Q585 313 461 313Q412 313 392 328T372 371T377 420L380 432Q392 478 428 534L517 670L597 641L539 496Q564 492 574 480T585 446Z" />
<glyph unicode="&#x201d;" glyph-name="quotedblright" horiz-adv-x="696" d="M193 491V484L-131 529H198Q193 519 193 491ZM179 293L-134 337H196L179 293ZM230 422L217 389L-99 433H213Q218 427 230 422ZM476 578T501 601T581 625T655 610T675 560Q675 491 619
404L531 268L451 297L507 441Q461 449 461 491Q461 503 464 518Q476 578 501 601ZM238 578T263 601T343 625T417 610T437 560Q437 491 381 404L293 268L213 297L269 441Q223 449 223 491Q223 503 226 518Q238 578 263 601Z" />
<glyph unicode="&#x201e;" glyph-name="quotedblbase" horiz-adv-x="563" d="M343 159T368 182T448 206T522 191T542 141Q542 72 486 -15L398 -151L318 -122L374 22Q328 30 328 72Q328 84 331 99Q343 159 368 182ZM105 159T130 182T210 206T284 191T304 141Q304
72 248 -15L160 -151L80 -122L136 22Q90 30 90 72Q90 84 93 99Q105 159 130 182ZM-154 48H59Q71 10 97 -1L-154 48ZM72 145Q66 125 63 100L-159 145H72Z" />
<glyph unicode="&#x2022;" glyph-name="bullet" horiz-adv-x="526" d="M174 196L-250 241H176Q174 211 174 196ZM204 337Q193 314 186 293L-227 337H204ZM218 100L-206 145H181Q191 117 218 100ZM204 195Q204 388 370 388Q433 388 458 369T484 305Q484 214 448
163T321 112Q256 112 230 131T204 195Z" />
<glyph unicode="&#x2039;" glyph-name="guilsinglleft" horiz-adv-x="530" d="M124 228L-200 273H132L124 228ZM155 328L-126 369H205L155 328ZM273 424L-8 465H323L273 424ZM-154 177H130L169 132L-154 177ZM-69 80H214L254 35L-69 80ZM167 300L382 475L450 424L325
250L389 76L303 25L150 200L167 300Z" />
<glyph unicode="&#x203a;" glyph-name="guilsinglright" horiz-adv-x="521" d="M326 475L479 300L462 200L247 25L179 76L305 250L240 424L326 475ZM252 228L-150 273H265L272 255L252 228ZM245 328L-76 369H229L245 328ZM208 424L42 465H249L203 438L208 424ZM-104
177H215L182 132L-104 177ZM-19 80H145L138 70L184 35L-19 80Z" />
</font>
</defs>
</svg>
