<?xml version="1.0" encoding="utf-8"?><!DOCTYPE svg PUBLIC "-//W3C//DTD SVG 1.1//EN" "http://www.w3.org/Graphics/SVG/1.1/DTD/svg11.dtd"><svg version="1.1" id="Layer_1" xmlns="http://www.w3.org/2000/svg" xmlns:xlink="http://www.w3.org/1999/xlink" x="0px" y="0px" width="500px" height="500px" viewBox="0 0 250 250" enable-background="new 0 0 250 250" xml:space="preserve"><g><rect x="5" y="5" fill="#F9F9F9" width="64" height="64"/><path fill="#F43059" d="M61.499,50.47c-2.122,0-4.653,0.782-4.653,3.202c0,2.085,1.713,2.532,2.829,2.792l6.516,1.601 c0.979,0.24,1.933,0.525,2.81,0.903v-4.478h-2.027C66.823,53.299,66.377,50.47,61.499,50.47z M5,5v42.911 c1.973-1.366,4.372-2.058,6.989-2.058c8.005,0,11.244,5.51,11.542,9.457h-5.585c-0.446-1.601-1.303-4.617-5.92-4.617 c-2.681,0-6.627,1.787-6.627,9.345c0,4.274,1.511,8.157,5.174,8.961h2.897c2.31-0.479,3.916-2.132,4.476-4.866h5.585 c-0.35,1.817-0.961,3.462-1.842,4.866h5.58c-0.664-1.37-0.876-2.79-0.876-3.935h5.361c0.028,1.156,0.494,3.114,2.978,3.935h5.715 c1.454-0.446,2.552-1.352,2.552-3.079c0-2.085-2.011-2.643-4.841-3.313l-2.866-0.67c-4.319-1.005-8.489-1.974-8.489-7.856 c0-2.979,1.602-8.228,10.276-8.228c8.19,0,10.388,5.361,10.425,8.638h-5.361c-0.149-1.191-0.596-4.021-5.474-4.021 c-2.122,0-4.653,0.782-4.653,3.202c0,2.085,1.713,2.532,2.829,2.792l6.516,1.601c3.648,0.894,7,2.383,7,7.186 c0,1.488-0.283,2.722-0.755,3.749H52.1c-0.664-1.37-0.876-2.79-0.876-3.935h5.361c0.028,1.156,0.494,3.114,2.978,3.935h5.715 c1.454-0.446,2.552-1.352,2.552-3.079c0-2.085-2.011-2.643-4.841-3.313l-2.866-0.67c-4.319-1.005-8.489-1.974-8.489-7.856 c0-2.979,1.602-8.228,10.276-8.228c3.212,0,5.491,0.83,7.091,2.029V5H5z"/></g><g><rect fill="#F43059" width="250" height="5"/><rect x="5.789" opacity="0.08" width="56.055" height="5"/><rect x="78.625" opacity="0.14" width="13.875" height="5"/><rect x="97.5" opacity="0.08" width="8" height="5"/><rect x="123.625" opacity="0.1" width="42.25" height="5"/><rect x="188.25" opacity="0.08" width="29.125" height="5"/><rect x="220.625" opacity="0.1" width="4.875" height="5"/></g><g><rect fill="#F43059" width="5" height="250"/><rect y="5.789" opacity="0.08" width="5" height="56.055"/><rect y="78.625" opacity="0.14" width="5" height="13.875"/><rect y="97.5" opacity="0.08" width="5" height="8"/><rect y="123.625" opacity="0.1" width="5" height="42.25"/><rect y="188.25" opacity="0.08" width="5" height="29.125"/><rect y="220.625" opacity="0.1" width="5" height="4.875"/></g></svg>
